<?xml version="1.0" encoding="UTF-8"?>
<svg xmlns="http://www.w3.org/2000/svg" xmlns:xlink="http://www.w3.org/1999/xlink" viewBox="0 0 100 100" width="100px" height="100px">
<g id="surface219772226">
<path style=" stroke:none;fill-rule:nonzero;fill:rgb(100%,100%,100%);fill-opacity:1;" d="M 45.636719 66.191406 L 51.054688 60.515625 L 56.472656 66.191406 L 56.472656 89.582031 L 45.636719 89.582031 Z M 45.636719 66.191406 "/>
<path style=" stroke:none;fill-rule:nonzero;fill:rgb(100%,100%,100%);fill-opacity:1;" d="M 36.953125 60.539062 L 44.671875 59.132812 L 45.71875 66.90625 L 31.96875 85.832031 L 23.203125 79.460938 Z M 36.953125 60.539062 "/>
<path style=" stroke:none;fill-rule:nonzero;fill:rgb(100%,100%,100%);fill-opacity:1;" d="M 33.253906 50.851562 L 40.324219 54.253906 L 36.601562 61.160156 L 14.355469 68.386719 L 11.007812 58.082031 Z M 33.253906 50.851562 "/>
<path style=" stroke:none;fill-rule:nonzero;fill:rgb(100%,100%,100%);fill-opacity:1;" d="M 35.949219 40.847656 L 39.671875 47.753906 L 32.601562 51.152344 L 10.355469 43.925781 L 13.703125 33.617188 Z M 35.949219 40.847656 "/>
<path style=" stroke:none;fill-rule:nonzero;fill:rgb(100%,100%,100%);fill-opacity:1;" d="M 44.011719 34.335938 L 42.964844 42.113281 L 35.246094 40.707031 L 21.496094 21.78125 L 30.261719 15.414062 Z M 44.011719 34.335938 "/>
<path style=" stroke:none;fill-rule:nonzero;fill:rgb(100%,100%,100%);fill-opacity:1;" d="M 54.363281 33.808594 L 48.945312 39.484375 L 43.527344 33.808594 L 43.527344 10.417969 L 54.363281 10.417969 Z M 54.363281 33.808594 "/>
<path style=" stroke:none;fill-rule:nonzero;fill:rgb(100%,100%,100%);fill-opacity:1;" d="M 63.046875 39.464844 L 55.328125 40.871094 L 54.28125 33.097656 L 68.027344 14.171875 L 76.796875 20.539062 Z M 63.046875 39.464844 "/>
<path style=" stroke:none;fill-rule:nonzero;fill:rgb(100%,100%,100%);fill-opacity:1;" d="M 66.746094 49.144531 L 59.675781 45.746094 L 63.398438 38.839844 L 85.644531 31.613281 L 88.992188 41.917969 Z M 66.746094 49.144531 "/>
<path style=" stroke:none;fill-rule:nonzero;fill:rgb(100%,100%,100%);fill-opacity:1;" d="M 64.050781 59.152344 L 60.328125 52.246094 L 67.398438 48.847656 L 89.644531 56.074219 L 86.296875 66.382812 Z M 64.050781 59.152344 "/>
<path style=" stroke:none;fill-rule:nonzero;fill:rgb(100%,100%,100%);fill-opacity:1;" d="M 55.988281 65.664062 L 57.039062 57.886719 L 64.753906 59.292969 L 78.503906 78.21875 L 69.738281 84.585938 Z M 55.988281 65.664062 "/>
</g>
</svg>
