<?xml version="1.0" encoding="UTF-8"?>
<svg xmlns="http://www.w3.org/2000/svg" xmlns:xlink="http://www.w3.org/1999/xlink" viewBox="0 0 100 100" width="100px" height="100px">
<g id="surface220171091">
<path style=" stroke:none;fill-rule:nonzero;fill:rgb(100%,100%,100%);fill-opacity:1;" d="M 2.082031 10.417969 L 14.582031 18.75 L 14.582031 60.417969 L 2.082031 52.082031 Z M 2.082031 10.417969 "/>
<path style=" stroke:none;fill-rule:nonzero;fill:rgb(100%,100%,100%);fill-opacity:1;" d="M 97.917969 41.667969 L 85.417969 50 L 85.417969 77.082031 L 97.917969 68.75 Z M 97.917969 41.667969 "/>
<path style=" stroke:none;fill-rule:nonzero;fill:rgb(100%,100%,100%);fill-opacity:1;" d="M 97.917969 12.5 L 85.417969 20.832031 L 85.417969 35.417969 L 97.917969 27.082031 Z M 97.917969 12.5 "/>
<path style=" stroke:none;fill-rule:nonzero;fill:rgb(100%,100%,100%);fill-opacity:1;" d="M 72.917969 10.417969 L 60.417969 18.75 L 60.417969 60.417969 L 72.917969 52.082031 Z M 72.917969 10.417969 "/>
<path style=" stroke:none;fill-rule:nonzero;fill:rgb(100%,100%,100%);fill-opacity:1;" d="M 2.082031 25 L 37.5 47.917969 L 37.5 33.332031 L 2.082031 10.417969 Z M 2.082031 25 "/>
<path style=" stroke:none;fill-rule:nonzero;fill:rgb(100%,100%,100%);fill-opacity:1;" d="M 72.917969 25 L 37.5 47.917969 L 37.5 33.332031 L 72.917969 10.417969 Z M 72.917969 25 "/>
<path style=" stroke:none;fill-rule:nonzero;fill:rgb(100%,100%,100%);fill-opacity:1;" d="M 72.917969 54.167969 L 37.5 77.082031 L 37.5 62.5 L 72.917969 39.582031 Z M 72.917969 54.167969 "/>
<path style=" stroke:none;fill-rule:nonzero;fill:rgb(100%,100%,100%);fill-opacity:1;" d="M 97.917969 70.832031 L 62.5 93.75 L 62.5 79.167969 L 97.917969 56.25 Z M 97.917969 70.832031 "/>
<path style=" stroke:none;fill-rule:nonzero;fill:rgb(100%,100%,100%);fill-opacity:1;" d="M 62.5 78.675781 L 37.5 62.5 L 37.5 77.082031 L 62.5 93.261719 Z M 62.5 78.675781 "/>
</g>
</svg>
