<?xml version="1.0" encoding="UTF-8"?>
<svg xmlns="http://www.w3.org/2000/svg" xmlns:xlink="http://www.w3.org/1999/xlink" viewBox="0 0 100 100" width="100px" height="100px">
<g id="surface220073183">
<path style=" stroke:none;fill-rule:nonzero;fill:rgb(100%,100%,100%);fill-opacity:1;" d="M 50.015625 94.621094 C 48.820312 94.621094 47.632812 94.308594 46.585938 93.707031 L 35.667969 87.242188 C 34.039062 86.328125 34.832031 86.007812 35.371094 85.820312 C 37.546875 85.058594 37.984375 84.886719 40.304688 83.570312 C 40.550781 83.429688 40.867188 83.480469 41.117188 83.628906 L 49.507812 88.605469 C 49.808594 88.769531 50.238281 88.769531 50.519531 88.605469 L 83.222656 69.726562 C 83.523438 69.554688 83.722656 69.203125 83.722656 68.84375 L 83.722656 31.109375 C 83.722656 30.730469 83.523438 30.394531 83.214844 30.207031 L 50.527344 11.347656 C 50.226562 11.167969 49.824219 11.167969 49.519531 11.347656 L 16.835938 30.207031 C 16.519531 30.386719 16.320312 30.738281 16.320312 31.097656 L 16.320312 68.835938 C 16.320312 69.195312 16.515625 69.539062 16.828125 69.710938 L 25.785156 74.882812 C 30.644531 77.316406 33.617188 74.449219 33.617188 71.570312 L 33.617188 34.324219 C 33.617188 33.792969 34.035156 33.382812 34.566406 33.382812 L 38.707031 33.382812 C 39.226562 33.382812 39.648438 33.792969 39.648438 34.324219 L 39.648438 71.585938 C 39.648438 78.070312 36.113281 81.796875 29.964844 81.796875 C 28.074219 81.796875 26.585938 81.796875 22.425781 79.75 L 13.847656 74.804688 C 11.726562 73.578125 10.417969 71.285156 10.417969 68.835938 L 10.417969 31.101562 C 10.417969 28.644531 11.726562 26.351562 13.847656 25.140625 L 46.582031 6.253906 C 48.652344 5.082031 51.402344 5.082031 53.460938 6.253906 L 86.15625 25.148438 C 88.265625 26.367188 89.582031 28.652344 89.582031 31.109375 L 89.582031 68.847656 C 89.582031 71.292969 88.265625 73.578125 86.152344 74.804688 L 53.457031 93.691406 C 52.410156 94.296875 51.222656 94.605469 50.011719 94.605469 "/>
<path style=" stroke:none;fill-rule:nonzero;fill:rgb(100%,100%,100%);fill-opacity:1;" d="M 60.117188 68.617188 C 45.808594 68.617188 42.808594 62.050781 42.808594 56.542969 C 42.808594 56.019531 43.230469 55.601562 43.757812 55.601562 L 47.980469 55.601562 C 48.449219 55.601562 48.839844 55.941406 48.914062 56.398438 C 49.550781 60.703125 51.453125 62.875 60.105469 62.875 C 66.996094 62.875 69.925781 61.320312 69.925781 57.664062 C 69.925781 55.558594 69.089844 53.996094 58.386719 52.949219 C 49.429688 52.066406 43.894531 50.089844 43.894531 42.929688 C 43.894531 36.332031 49.460938 32.402344 58.785156 32.402344 C 69.257812 32.402344 74.445312 36.039062 75.101562 43.847656 C 75.125 44.117188 75.027344 44.378906 74.847656 44.574219 C 74.667969 44.761719 74.414062 44.878906 74.148438 44.878906 L 69.902344 44.878906 C 69.460938 44.878906 69.074219 44.566406 68.984375 44.140625 C 67.960938 39.613281 65.488281 38.164062 58.769531 38.164062 C 51.246094 38.164062 50.371094 40.785156 50.371094 42.746094 C 50.371094 45.128906 51.402344 45.824219 61.550781 47.167969 C 71.605469 48.503906 76.378906 50.386719 76.378906 57.449219 C 76.378906 64.570312 70.433594 68.65625 60.070312 68.65625 "/>
</g>
</svg>
