<?xml version="1.0" encoding="UTF-8"?>
<svg xmlns="http://www.w3.org/2000/svg" xmlns:xlink="http://www.w3.org/1999/xlink" viewBox="0 0 64 64" width="64px" height="64px">
<g id="surface9020436">
<path style=" stroke:none;fill-rule:nonzero;fill:rgb(100%,100%,100%);fill-opacity:1;" d="M 31.882812 3 C 27.660156 3.011719 23.378906 3.953125 19.332031 5.917969 C 12.417969 9.277344 7.121094 15.246094 4.609375 22.511719 C -0.636719 37.636719 7.375 54.148438 22.503906 59.390625 C 37.628906 64.636719 54.140625 56.625 59.386719 41.496094 C 61.929688 34.226562 61.453125 26.242188 58.066406 19.324219 C 53.035156 8.972656 42.664062 2.964844 31.882812 3 Z M 31.53125 4.988281 C 34.613281 4.933594 37.753906 5.410156 40.835938 6.476562 C 47.597656 8.824219 53.152344 13.753906 56.273438 20.191406 C 59.402344 26.632812 59.835938 34.046875 57.492188 40.808594 C 52.613281 54.890625 37.242188 62.347656 23.160156 57.46875 C 9.082031 52.589844 1.625 37.21875 6.503906 23.136719 C 10.316406 12.136719 20.53125 5.175781 31.53125 4.984375 Z M 31.636719 8.316406 C 30.804688 8.304688 29.96875 8.339844 29.136719 8.417969 C 28.585938 8.4375 28.152344 8.898438 28.171875 9.449219 C 28.191406 10 28.652344 10.433594 29.203125 10.414062 C 29.242188 10.414062 29.289062 10.410156 29.328125 10.402344 C 30.082031 10.324219 30.835938 10.285156 31.589844 10.289062 C 32.136719 10.214844 32.515625 9.707031 32.441406 9.160156 C 32.382812 8.738281 32.058594 8.398438 31.636719 8.316406 Z M 25.050781 9.242188 C 24.921875 9.226562 24.789062 9.238281 24.65625 9.277344 C 17.621094 11.421875 12.027344 16.789062 9.597656 23.730469 C 9.402344 24.246094 9.660156 24.824219 10.175781 25.019531 C 10.695312 25.214844 11.269531 24.957031 11.46875 24.441406 C 11.472656 24.425781 11.480469 24.40625 11.484375 24.390625 L 11.449219 24.425781 C 13.664062 18.066406 18.789062 13.148438 25.230469 11.191406 C 25.757812 11.035156 26.058594 10.476562 25.902344 9.949219 C 25.78125 9.550781 25.441406 9.285156 25.054688 9.242188 Z M 44.9375 14.75 C 42.554688 14.75 40.625 16.679688 40.625 19.0625 C 40.625 21.445312 42.554688 23.375 44.9375 23.375 C 45.550781 23.375 46.132812 23.242188 46.664062 23.011719 L 43.496094 19.742188 C 43.433594 19.675781 43.394531 19.582031 43.402344 19.488281 C 43.402344 19.390625 43.445312 19.300781 43.515625 19.238281 L 47.535156 15.640625 C 46.8125 15.089844 45.917969 14.75 44.9375 14.75 Z M 48.0625 16.105469 L 44.253906 19.515625 L 47.296875 22.664062 C 48.472656 21.894531 49.25 20.570312 49.25 19.0625 C 49.25 17.914062 48.792969 16.878906 48.0625 16.105469 Z M 47.984375 18.152344 C 48.117188 18.144531 48.25 18.214844 48.3125 18.34375 C 48.332031 18.378906 48.757812 19.261719 48.1875 20.40625 C 48.125 20.527344 48.003906 20.597656 47.875 20.597656 C 47.824219 20.597656 47.769531 20.585938 47.71875 20.5625 C 47.546875 20.476562 47.476562 20.269531 47.5625 20.09375 C 47.972656 19.277344 47.699219 18.675781 47.6875 18.652344 C 47.605469 18.480469 47.675781 18.273438 47.851562 18.1875 C 47.894531 18.167969 47.9375 18.15625 47.984375 18.152344 Z M 39.410156 21.65625 C 38.765625 21.6875 38.035156 21.84375 37.25 22.125 C 34.125 23.25 30.375 27.375 30.375 27.375 L 27.367188 30.863281 L 29.835938 33.289062 L 41.046875 21.964844 C 40.609375 21.730469 40.050781 21.628906 39.410156 21.660156 Z M 41.601562 22.394531 L 30.332031 33.78125 L 31.789062 35.214844 L 40.25 26.632812 C 40.273438 26.605469 42.101562 24.804688 42.007812 23.207031 C 41.925781 22.890625 41.792969 22.617188 41.601562 22.394531 Z M 41.769531 25.875 C 41.285156 26.589844 40.785156 27.085938 40.742188 27.128906 L 32.289062 35.703125 L 33.410156 36.808594 C 33.523438 36.703125 33.632812 36.605469 33.75 36.5 C 39.839844 30.851562 41.125 28.441406 41.773438 25.875 Z M 26.910156 31.394531 L 24.125 34.625 L 29.230469 33.675781 Z M 29.722656 34.15625 L 27.964844 35.976562 L 31.085938 35.496094 Z M 31.707031 36.109375 L 27.160156 36.808594 L 18.828125 45.433594 L 22.324219 48.871094 L 22.5 48.875 L 21.625 45.25 C 21.625 45.25 26.445312 43.058594 32.894531 37.273438 Z M 51.742188 37.121094 C 51.359375 37.191406 51.039062 37.484375 50.949219 37.886719 C 50.835938 38.394531 51.128906 38.902344 51.625 39.058594 L 53.550781 39.574219 C 54.089844 39.695312 54.625 39.355469 54.746094 38.816406 C 54.859375 38.308594 54.5625 37.800781 54.070312 37.644531 L 52.140625 37.128906 C 52.007812 37.097656 51.871094 37.097656 51.742188 37.121094 Z M 50.042969 41.828125 C 49.65625 41.792969 49.265625 41.988281 49.074219 42.355469 C 48.828125 42.820312 48.980469 43.394531 49.429688 43.671875 L 51.160156 44.667969 C 51.640625 44.941406 52.253906 44.773438 52.53125 44.292969 C 52.804688 43.8125 52.636719 43.195312 52.15625 42.921875 L 50.425781 41.941406 C 50.300781 41.875 50.171875 41.839844 50.042969 41.828125 Z M 46.832031 45.832031 C 46.578125 45.832031 46.324219 45.929688 46.125 46.125 C 45.738281 46.515625 45.738281 47.148438 46.125 47.535156 L 47.539062 48.949219 C 47.929688 49.339844 48.5625 49.339844 48.949219 48.949219 C 49.339844 48.5625 49.339844 47.925781 48.949219 47.535156 L 47.539062 46.125 C 47.34375 45.929688 47.085938 45.832031 46.832031 45.832031 Z M 18.34375 45.9375 L 15.625 48.75 L 21.308594 48.851562 Z M 42.671875 48.9375 C 42.542969 48.953125 42.414062 48.996094 42.296875 49.066406 C 41.820312 49.34375 41.660156 49.953125 41.9375 50.429688 L 42.925781 52.152344 C 43.183594 52.640625 43.789062 52.824219 44.277344 52.566406 C 44.761719 52.308594 44.949219 51.703125 44.691406 51.21875 C 44.679688 51.195312 44.667969 51.175781 44.65625 51.15625 L 43.660156 49.425781 C 43.453125 49.070312 43.054688 48.886719 42.671875 48.9375 Z M 38.234375 50.886719 C 38.109375 50.867188 37.976562 50.875 37.84375 50.910156 C 37.839844 50.910156 37.839844 50.910156 37.835938 50.910156 C 37.304688 51.050781 36.984375 51.601562 37.128906 52.132812 C 37.128906 52.136719 37.128906 52.136719 37.128906 52.140625 L 37.644531 54.070312 C 37.8125 54.59375 38.371094 54.886719 38.898438 54.722656 C 39.394531 54.566406 39.6875 54.058594 39.574219 53.550781 L 39.0625 51.625 C 38.957031 51.222656 38.621094 50.941406 38.234375 50.886719 Z M 38.234375 50.886719 "/>
</g>
</svg>
