<?xml version="1.0" encoding="UTF-8"?>
<svg xmlns="http://www.w3.org/2000/svg" xmlns:xlink="http://www.w3.org/1999/xlink" viewBox="0 0 100 100" width="100px" height="100px">
<g id="surface233548094">
<path style=" stroke:none;fill-rule:nonzero;fill:rgb(100%,100%,100%);fill-opacity:1;" d="M 69.804688 4 C 65.726562 4 62.195312 5.101562 59.75 6.1875 C 57.351562 5.382812 53.375 4.007812 48.601562 5 C 45.820312 5.484375 43.265625 6.632812 40.921875 8.390625 C 37.0625 6.53125 33.03125 5.390625 28.804688 5.203125 C 26.203125 5 15.601562 6.203125 11.796875 11.796875 C 10.398438 14 9 16.796875 8.398438 20.195312 C 7.796875 23.195312 7.796875 26.601562 8.796875 33.601562 C 9.398438 38.398438 10.203125 41.601562 12 48.195312 C 12.203125 48.796875 13.203125 52 16.203125 60.804688 C 16.796875 62.398438 18 65.398438 20.398438 68.195312 C 22 70.195312 23.601562 71.398438 25.601562 71.398438 C 28.203125 71.398438 30 69.601562 31.601562 67.601562 C 31.71875 67.46875 31.84375 67.320312 31.960938 67.1875 C 31.8125 67.421875 31.679688 67.679688 31.601562 68 C 31.203125 70 33.601562 71.601562 35.601562 72.398438 C 37.203125 73.195312 39 73.398438 40.398438 73.398438 C 42.195312 73.398438 43.601562 73 44.398438 72.804688 C 45.085938 72.570312 46.570312 71.929688 48.15625 70.875 C 48.226562 75.984375 48.273438 82.015625 48.398438 83.398438 C 49 88.601562 50.398438 92.195312 53 94.195312 C 55 95.796875 58.601562 96 58.804688 96 C 62.398438 96 68 93.601562 70.398438 89.804688 C 71.601562 88 72 86.398438 72.398438 84.195312 C 72.796875 83 73.195312 76 73.398438 74.601562 C 73.671875 72.390625 73.882812 70.210938 74.09375 68.09375 C 75.414062 68.4375 77.039062 68.804688 78.804688 68.804688 C 82 68.804688 86.203125 66.601562 87 66.195312 C 88.601562 65 91.796875 62.203125 90.398438 59.804688 C 89.601562 58.398438 88.398438 58.398438 85.398438 58.804688 C 85.398438 58.804688 80.601562 59.398438 80.195312 59.195312 C 79.90625 59.085938 79.460938 58.804688 78.960938 58.4375 C 80 56.828125 80.921875 55.234375 82 53.804688 C 84.398438 49.203125 85.804688 45.601562 86.804688 42.804688 C 88.601562 37.804688 89.601562 33.796875 90.195312 31 C 91.601562 25 92 22.203125 91.195312 19 C 89.601562 13.398438 83.796875 8.601562 81.398438 7.203125 C 79.796875 6.398438 75.804688 4 69.804688 4 Z M 69.804688 8 C 74.804688 8 78.203125 10 80 10.796875 C 82.203125 12 87.203125 16 87.601562 19.796875 C 87.804688 22 88 24.203125 86.601562 30 C 85.804688 32.796875 85 36.398438 83.195312 41.398438 C 82.195312 44.195312 81 47.601562 78.601562 51.804688 C 78.539062 51.90625 78.46875 52.015625 78.40625 52.125 C 78.640625 51.28125 78.804688 50.601562 78.804688 50.601562 C 79.203125 48.601562 79.203125 47 79 44.601562 C 78.796875 43.398438 78.601562 40.398438 78.601562 39.195312 C 78.601562 38.601562 79.195312 32.398438 79.398438 30.195312 C 79.601562 26.601562 77.398438 22.195312 76.804688 21.398438 C 73.804688 16.796875 72.203125 14.203125 69 11.601562 C 68.203125 10.921875 66.835938 9.789062 64.976562 8.648438 C 66.445312 8.289062 68.070312 8 69.804688 8 Z M 52.132812 8.820312 C 54.742188 8.882812 56.953125 9.601562 58.601562 10.203125 C 62.804688 11.601562 65.398438 13.796875 66.601562 14.796875 C 69.203125 17 70.601562 19.203125 73.601562 23.804688 C 73.820312 24.242188 74.390625 25.171875 74.84375 26.46875 C 70.75 26.09375 68.03125 27.53125 66.398438 29 C 64 31 64.195312 34 64.398438 36.195312 C 64.398438 37.796875 64.804688 39.804688 67.804688 46.601562 C 69 49.601562 70.195312 52.796875 71.398438 55 C 72.023438 56.242188 72.789062 57.382812 73.609375 58.398438 C 73.132812 58.640625 72.648438 58.953125 72.195312 59.398438 C 71 60.796875 70.796875 62.203125 70.398438 64.804688 C 70 66.804688 69.601562 71 69.398438 74.398438 C 69.398438 75.796875 68.804688 82.601562 68.601562 83.601562 C 68 85.601562 67.796875 86.601562 67 87.804688 C 65.601562 90 61.203125 91.804688 58.601562 91.601562 C 57.804688 91.601562 56.601562 91.601562 55.601562 90.804688 C 53.398438 89.203125 52.601562 85.601562 52.398438 82.804688 C 52.195312 80.804688 52.398438 66.398438 52 63.195312 C 51.796875 62.398438 51.601562 60.398438 50 59 C 49.328125 58.4375 47.9375 58.148438 46.625 57.953125 C 46.640625 57.28125 46.679688 56.609375 46.804688 56 C 47 54.796875 47.398438 54.195312 47.804688 53.195312 C 48 52.601562 48.398438 51.804688 48.804688 50.804688 C 50.601562 45.203125 50.195312 37.796875 49.195312 33.195312 C 49 32.796875 48.195312 29.601562 45.398438 27.804688 C 42.398438 26 39.195312 27 37.398438 27.601562 C 36.65625 27.804688 35.921875 28.125 35.1875 28.5 C 35.3125 27.664062 35.421875 26.820312 35.601562 26 C 36.398438 22 37.203125 18.601562 39.804688 15.203125 C 42.601562 11.796875 45.796875 9.601562 49.398438 9 C 50.351562 8.851562 51.265625 8.796875 52.132812 8.820312 Z M 27.4375 9.171875 C 27.90625 9.164062 28.304688 9.171875 28.601562 9.203125 C 31.726562 9.367188 34.71875 10.101562 37.6875 11.351562 C 37.320312 11.757812 36.953125 12.164062 36.601562 12.601562 C 33.203125 16.601562 32.398438 20.796875 31.601562 25 C 30.601562 30 30.398438 35.195312 31.195312 40.398438 L 30.804688 44.195312 C 30.601562 46.195312 30.195312 50 32.398438 54 C 33.171875 55.328125 34.023438 56.453125 34.960938 57.414062 C 32.929688 60.101562 30.773438 62.640625 28.601562 65 C 27.398438 66.398438 26.398438 67.398438 25.601562 67.398438 C 25.398438 67.398438 24.601562 67 23.398438 65.601562 C 21.195312 63.203125 20.398438 60.601562 20 59.601562 C 17.601562 52.398438 16.203125 47.796875 16 47.195312 C 14.398438 40.796875 13.601562 37.601562 12.796875 33 C 11.796875 26.601562 11.796875 23.398438 12.398438 20.804688 C 13 18 14 15.796875 15 14.203125 C 17.453125 10.351562 24.1875 9.257812 27.4375 9.171875 Z M 73.328125 30.25 C 73.96875 30.25 74.664062 30.328125 75.398438 30.484375 C 75.375 32.351562 74.601562 38.210938 74.601562 39 C 74.601562 40.601562 75 43.796875 75 45 C 75.203125 47.203125 75.203125 48.398438 75 50 C 75 50 74.703125 51.429688 74.398438 52.445312 C 73.46875 50.34375 72.4375 47.835938 71.195312 45 C 68.195312 38.203125 68 36.804688 68 35.804688 C 68 34.398438 68 32.601562 69.195312 31.804688 C 70.320312 30.804688 71.6875 30.265625 73.328125 30.25 Z M 42.28125 30.835938 C 42.679688 30.882812 43.046875 31 43.398438 31.195312 C 45 32 45.398438 34 45.398438 34 C 46.398438 38.398438 46.796875 45 45.195312 49.398438 C 45 50.195312 44.601562 50.796875 44.398438 51.398438 C 44 52.398438 43.601562 53.398438 43.195312 55.195312 C 43.09375 55.9375 43.046875 56.671875 43.023438 57.40625 C 41.640625 57.117188 40.335938 56.625 39.398438 56 C 37.796875 55.203125 36.601562 53.796875 35.804688 52.195312 C 34.398438 49.195312 34.601562 46.398438 34.804688 44.804688 L 35.195312 40.195312 C 34.914062 37.945312 34.78125 35.6875 34.8125 33.445312 C 35.734375 32.65625 36.9375 31.851562 38.601562 31.398438 C 39.804688 31.101562 41.117188 30.6875 42.28125 30.835938 Z M 71.773438 32.179688 C 71.25 32.203125 70.695312 32.296875 70.398438 32.398438 C 69.601562 32.601562 69.398438 32.601562 69.195312 33 C 69 33.398438 69.601562 34 69.804688 34.398438 C 70 34.398438 70.601562 35 71.398438 34.804688 C 72 34.601562 72.398438 34.203125 72.601562 34 C 72.804688 33.796875 73.601562 32.796875 73 32.398438 C 72.796875 32.195312 72.296875 32.148438 71.773438 32.179688 Z M 41.828125 33.632812 C 41.609375 33.648438 41.398438 33.703125 41.195312 33.804688 C 41 33.804688 40.601562 34 40.398438 34.398438 C 40.195312 34.796875 40.398438 35.195312 40.601562 35.398438 C 41 36 41.601562 36.601562 42.601562 36.601562 C 42.804688 36.601562 43.601562 36.601562 44.195312 36 C 44.195312 36 44.804688 35.398438 44.804688 34.804688 C 44.601562 34.398438 44.203125 34.203125 43.601562 34 C 43.148438 33.851562 42.476562 33.585938 41.828125 33.632812 Z M 38.148438 59.804688 C 39.375 60.460938 40.851562 60.992188 42.46875 61.359375 C 42.039062 62.21875 41.421875 62.929688 40.804688 63.398438 C 39.398438 64.398438 37.601562 65 35.804688 65.398438 C 35.398438 65.398438 35.203125 65.601562 34.804688 65.601562 C 33.835938 65.875 32.898438 66.179688 32.257812 66.84375 C 34.21875 64.664062 36.1875 62.257812 38.148438 59.804688 Z M 76.710938 61.40625 C 77.585938 62.0625 78.445312 62.546875 79.195312 62.804688 C 80.398438 63.203125 81.398438 63.203125 85 62.804688 C 84.398438 63.398438 82.601562 64.398438 80 64.804688 C 78.328125 64.96875 76.25 64.570312 74.5625 64.085938 C 74.71875 62.953125 74.898438 62.304688 75.195312 62 C 75.304688 61.898438 75.96875 61.695312 76.710938 61.40625 Z M 46.59375 62.007812 C 47.007812 62.078125 47.335938 62.132812 47.398438 62.195312 C 47.796875 62.601562 48 63.601562 48 64 C 48.023438 64.34375 48.039062 65.210938 48.054688 65.8125 C 46.40625 67.742188 43.757812 68.8125 43.195312 69 C 42.398438 69.398438 40 69.796875 37.601562 69 C 39.601562 68.398438 41.601562 67.804688 43.195312 66.601562 C 44.59375 65.601562 45.796875 64.007812 46.59375 62.007812 Z M 46.59375 62.007812 "/>
</g>
</svg>
