<?xml version="1.0" encoding="UTF-8"?>
<svg xmlns="http://www.w3.org/2000/svg" xmlns:xlink="http://www.w3.org/1999/xlink" viewBox="0 0 96 96" width="96px" height="96px">
<g id="surface62148233">
<path style=" stroke:none;fill-rule:nonzero;fill:rgb(100%,100%,100%);fill-opacity:1;" d="M 48 19.207031 C 35.199219 19.207031 27.199219 25.605469 24 38.402344 C 28.800781 32.003906 34.398438 29.605469 40.800781 31.203125 C 44.453125 32.117188 47.0625 34.765625 49.953125 37.699219 C 54.65625 42.472656 60.101562 48 72 48 C 84.800781 48 92.800781 41.601562 96 28.804688 C 91.199219 35.203125 85.601562 37.601562 79.199219 36.003906 C 75.550781 35.09375 72.941406 32.441406 70.050781 29.511719 C 65.34375 24.734375 59.894531 19.207031 48 19.207031 Z M 24 48 C 11.199219 48 3.199219 54.398438 0 67.195312 C 4.800781 60.796875 10.398438 58.398438 16.800781 59.996094 C 20.449219 60.910156 23.058594 63.558594 25.949219 66.488281 C 30.65625 71.265625 36.105469 76.792969 48 76.792969 C 60.800781 76.792969 68.800781 70.394531 72 57.597656 C 67.199219 63.996094 61.601562 66.394531 55.199219 64.796875 C 51.546875 63.882812 48.9375 61.234375 46.046875 58.304688 C 41.34375 53.527344 35.898438 48 24 48 Z M 24 48 "/>
</g>
</svg>
