<svg width="501" height="535" viewBox="0 0 501 535" fill="none" xmlns="http://www.w3.org/2000/svg">
<g clip-path="url(#clip0_123_2)">
<path d="M112.706 127.195C112.706 127.195 75.6977 397.6 159.295 518.405H351.927C351.927 518.405 412.052 415.421 407.549 281.182C403.071 146.943 351.927 84 351.927 84C351.927 84 216.128 -11.2704 112.706 127.195Z" fill="#651344"/>
<path d="M300.807 491.874C299.826 486.415 300.807 422.289 300.807 422.289L252.253 435.496L203.7 422.289C203.7 422.289 204.681 486.415 203.7 491.874C202.719 497.333 136.958 526.113 136.958 526.113C136.958 526.113 189.184 532.78 252.253 532.78C315.323 532.78 367.549 526.113 367.549 526.113C367.549 526.113 301.788 497.333 300.807 491.874Z" fill="url(#paint0_linear_123_2)"/>
<path opacity="0.6" d="M204.027 452.453C204.027 452.453 251.952 483.673 300.379 474.264L300.807 422.289H203.7L204.027 452.453Z" fill="#CC5855"/>
<path d="M437.335 281.786C436.581 285.384 435.75 288.629 434.87 291.522C434.845 291.572 434.845 291.623 434.82 291.673C428.405 312.352 418.669 317.233 414.769 326.566C411.373 334.616 398.065 350.818 384.883 333.987C384.857 333.962 384.832 333.937 384.832 333.937C384.832 333.937 391.096 265.434 396.128 252.981C396.128 252.981 403.398 234.314 416.48 231.472C433.285 227.849 443.876 249.962 437.335 281.786Z" fill="url(#paint1_linear_123_2)"/>
<path opacity="0.6" d="M389.36 291.446C389.36 291.446 415.675 253.233 428.279 250.717C440.857 248.226 434.568 280.629 432.027 291.446C429.486 302.239 425.713 308.629 425.713 308.629C425.713 308.629 428.882 295.874 429.511 285.56C430.392 270.742 425.687 258.012 420.404 259.22C415.121 260.428 408.027 279.069 407.549 281.182C407.096 283.295 411.046 287.094 410.819 298.616C410.593 310.138 405.084 322.641 402.09 322.49C399.096 322.339 400.379 313.031 400.379 302.264C400.379 291.497 391.977 293.585 388.253 300.578L389.36 291.446Z" fill="url(#paint2_linear_123_2)"/>
<path opacity="0.6" d="M388.279 300.553C388.279 300.553 395.046 290.314 399.096 294.968C403.147 299.622 400.228 312.503 403.348 314.063C406.467 315.597 410.618 305.182 409.813 295.648C409.008 286.113 405.209 277.56 399.851 279.17L389.36 291.446L388.279 300.553Z" fill="url(#paint3_linear_123_2)"/>
<path d="M434.794 291.673C428.379 312.352 418.643 317.233 414.744 326.566C411.348 334.616 398.04 350.817 384.857 333.987C385.637 334.641 393.26 340.83 401.008 338.012C409.159 335.044 411.775 327.421 415.222 321.509C418.643 315.622 427.499 311.572 434.794 291.673Z" fill="#DD6B7C"/>
<path d="M63.8761 281.786C64.6308 285.384 65.461 288.629 66.3415 291.522C66.3667 291.572 66.3667 291.623 66.3918 291.673C72.8069 312.352 82.5428 317.233 86.4422 326.566C89.8384 334.616 103.147 350.818 116.329 333.987C116.354 333.962 116.379 333.937 116.379 333.937C116.379 333.937 110.115 265.434 105.084 252.981C105.084 252.981 97.8132 234.314 84.7315 231.472C67.9264 227.849 57.3101 249.962 63.8761 281.786Z" fill="url(#paint4_linear_123_2)"/>
<path opacity="0.6" d="M111.826 291.446C111.826 291.446 85.5113 253.233 72.9075 250.717C60.3289 248.226 66.6182 280.629 69.1591 291.446C71.7 302.239 75.4736 308.629 75.4736 308.629C75.4736 308.629 72.3038 295.874 71.6748 285.56C70.7943 270.742 75.4987 258.012 80.7817 259.22C86.0647 260.428 93.1591 279.069 93.6371 281.182C94.0899 283.295 90.1402 287.094 90.3666 298.616C90.593 310.138 96.1025 322.641 99.0962 322.49C102.09 322.339 100.807 313.031 100.807 302.264C100.807 291.497 109.209 293.585 112.933 300.578L111.826 291.446Z" fill="url(#paint5_linear_123_2)"/>
<path opacity="0.6" d="M112.933 300.553C112.933 300.553 106.165 290.314 102.115 294.968C98.0648 299.622 100.983 312.503 97.8635 314.063C94.744 315.597 90.5931 305.182 91.3981 295.648C92.2031 286.113 96.0019 277.56 101.36 279.17L111.851 291.446L112.933 300.553Z" fill="url(#paint6_linear_123_2)"/>
<path d="M66.3918 291.673C72.8069 312.352 82.5428 317.233 86.4422 326.566C89.8384 334.616 103.147 350.817 116.329 333.987C115.549 334.641 107.926 340.83 100.178 338.012C92.0271 335.044 89.4107 327.421 85.9642 321.509C82.568 315.622 73.7126 311.572 66.3918 291.673Z" fill="#DD6B7C"/>
<path d="M402.82 246.188C402.795 246.239 402.795 246.264 402.795 246.289C399.474 263.044 395.398 280.679 392.606 300.905C385.159 354.264 369.285 378.792 333.034 402.364C295.046 427.069 283.65 436.704 250.845 437.911C218.04 436.679 206.644 427.069 168.656 402.364C132.43 378.792 116.505 354.289 109.109 300.905C107.448 289.006 105.36 278.012 103.247 267.572C101.687 259.824 100.103 252.352 98.6685 245.056C98.6434 244.931 98.6182 244.83 98.5931 244.754C98.5679 244.679 98.5679 244.654 98.5679 244.654C93.3352 217.887 90.1654 193.157 97.3352 163.321C104.731 132.453 130.266 94.1131 169.109 69.937C169.109 69.937 169.109 69.937 169.134 69.937C169.159 69.937 169.184 69.9119 169.184 69.9119C192.103 55.6478 219.65 46.3144 250.845 46.3144C335.046 46.3144 392.606 114.189 404.354 163.321C411.65 193.736 408.229 218.843 402.82 246.188Z" fill="url(#paint7_linear_123_2)"/>
<path opacity="0.6" d="M216.128 226.133C216.128 226.133 222.115 259.585 215.901 296.05C215.901 296.05 198.543 311.203 157.134 305.019C115.725 298.836 120.379 224.389 126.845 202.464C136.228 170.597 203.951 194.22 216.128 226.133Z" fill="url(#paint8_linear_123_2)"/>
<path opacity="0.6" d="M285.536 217.233C285.536 217.233 279.549 254.39 285.763 294.893C285.763 294.893 303.121 311.723 344.53 304.855C385.939 297.987 386.945 235.346 380.505 210.994C371.096 175.623 297.738 181.786 285.536 217.233Z" fill="url(#paint9_linear_123_2)"/>
<path opacity="0.6" d="M402.794 246.289C399.473 263.044 395.398 280.679 392.605 300.905C385.159 354.264 369.285 378.792 333.033 402.364C295.046 427.069 283.65 436.704 250.845 437.911C218.04 436.679 206.643 427.069 168.656 402.364C132.43 378.792 116.505 354.289 109.109 300.905C106.241 280.176 102.04 262.188 98.6685 245.081C99.7251 249.232 108.43 283.547 116.933 318.364C126.014 355.496 139.398 378.364 179.624 406.792C217.058 433.232 238.87 435.446 249.939 435.547H251.826C262.92 435.446 284.731 433.232 322.14 406.792C362.366 378.389 375.75 355.522 384.832 318.364C392.807 285.836 400.907 253.811 402.794 246.289Z" fill="#C95C45"/>
<path opacity="0.6" d="M169.134 69.9371C167.448 71.1949 124.253 102.969 121.159 132.402C117.989 162.415 119.901 196.226 110.266 224.553C100.983 251.849 106.744 277.107 107.172 278.868C106.92 278.239 105.411 274.113 103.247 267.572C101.687 259.824 100.103 252.352 98.6685 245.057C98.6434 244.931 98.6182 244.83 98.5931 244.755C98.5679 244.679 98.5679 244.654 98.5679 244.654C93.3352 217.887 90.1654 193.157 97.3352 163.321C104.731 132.453 130.266 94.1132 169.134 69.9371C169.109 69.9371 169.109 69.9371 169.134 69.9371Z" fill="url(#paint10_linear_123_2)"/>
<path opacity="0.6" d="M332.555 69.9371C334.241 71.1949 377.436 102.969 380.53 132.402C383.7 162.415 381.788 196.226 391.423 224.553C400.706 251.849 394.945 277.107 394.518 278.868C394.769 278.239 396.279 274.113 398.442 267.572C400.002 259.824 401.587 252.352 403.021 245.057C403.046 244.931 403.071 244.83 403.096 244.755C403.121 244.679 403.121 244.654 403.121 244.654C408.354 217.887 411.524 193.157 404.354 163.321C396.958 132.453 371.423 94.1132 332.555 69.9371C332.58 69.9371 332.58 69.9371 332.555 69.9371Z" fill="url(#paint11_linear_123_2)"/>
<path d="M316.782 103.522C317.31 104.176 319.121 106.49 321.738 110.365C320.102 108.075 318.467 105.811 316.782 103.522Z" fill="url(#paint12_linear_123_2)"/>
<path opacity="0.6" d="M123.723 352.251C123.723 352.251 147.181 377.682 136.145 372.415C195.812 392.496 230.736 307.682 230.736 307.682C212.442 290.22 205.066 274.846 115.263 269.857C105.379 269.308 118.683 339.986 123.723 352.251Z" fill="url(#paint13_linear_123_2)" fill-opacity="0.3"/>
<path opacity="0.5" d="M132.258 78.2093C132.258 78.2093 136.541 72.7818 144.373 75.0948L132.258 78.2093Z" fill="url(#paint14_linear_123_2)"/>
<g clip-path="url(#clip1_123_2)">
<path d="M195.19 353.485C195.19 353.485 230.529 393.515 253.986 393.515C277.443 393.515 311.273 354.486 311.273 354.486C311.273 354.486 290.472 371.284 253.231 371.284C215.991 371.284 195.19 353.485 195.19 353.485Z" fill="#F36767"/>
<path d="M189.486 349.22C189.486 349.22 218.703 373.762 252.337 373.762C285.999 373.762 318.486 350.411 318.486 350.411C318.486 350.411 290.5 369.425 252.337 369.425C215.991 369.425 189.486 349.22 189.486 349.22Z" fill="#842751"/>
<path d="M254.825 369.378C254.713 369.378 254.685 369.378 254.685 369.378C252.532 369.521 227.398 370.784 201.145 356.154C200.809 356.011 200.53 355.844 200.278 355.701C199.859 355.463 199.411 355.201 198.992 354.962C198.656 354.772 198.461 354.629 198.293 354.557V354.534C199.355 354.939 211.406 359.394 227.482 360.8C227.51 360.8 227.565 360.8 227.565 360.8C229.746 360.991 232.011 361.134 234.359 361.205C251.582 361.634 254.322 367.257 254.741 368.925C254.825 369.187 254.825 369.378 254.825 369.378Z" fill="#BB4848"/>
<path d="M311.217 354.534C311.133 354.605 310.965 354.724 310.714 354.843C310.378 355.034 310.099 355.201 309.791 355.391C309.4 355.63 308.924 355.892 308.393 356.154C282.112 370.784 256.978 369.521 254.825 369.378C254.713 369.378 254.685 369.378 254.685 369.378C254.685 369.378 254.685 369.187 254.769 368.925C255.188 367.281 257.928 361.634 275.151 361.205C278.673 361.11 282.084 360.848 285.272 360.466L285.355 360.443C299.726 358.799 310.238 354.915 311.217 354.534Z" fill="#BB4848"/>
<path opacity="0.6" d="M285.328 360.443C299.726 358.799 310.238 354.915 311.217 354.534C311.133 354.605 310.965 354.724 310.714 354.843C310.378 355.034 310.099 355.201 309.791 355.391C309.4 355.63 308.924 355.892 308.393 356.154C306.157 357.321 302.913 358.775 299.447 359.49C293.268 360.776 285.272 360.466 285.272 360.466L285.328 360.443Z" fill="#D177B8"/>
<path opacity="0.6" d="M227.482 360.8C226.894 360.895 222.673 361.396 214.649 360.514C209.197 359.918 204.164 357.726 201.145 356.154C200.809 356.011 200.53 355.844 200.278 355.701C199.859 355.463 199.411 355.201 198.992 354.962C198.656 354.772 198.461 354.629 198.293 354.557C198.293 354.534 198.265 354.534 198.265 354.534C198.237 354.51 198.237 354.51 198.237 354.51L198.321 354.534C199.355 354.939 211.406 359.394 227.482 360.8Z" fill="#D177B8"/>
<path opacity="0.6" d="M216.103 373.762C216.103 373.762 237.407 391.871 253.231 391.871C269.056 391.871 293.883 371.856 293.883 371.856C293.883 371.856 269.028 396.088 253.231 396.088C237.435 396.088 216.103 373.762 216.103 373.762Z" fill="#D177B8"/>
</g>
<g clip-path="url(#clip2_123_2)">
<path d="M225.266 330.072C225.266 330.072 218.51 300.828 250.319 300.828C282.105 300.828 276.793 329.499 276.793 329.499L275.373 330.072C275.373 330.072 266.693 336.553 250.319 336.553C233.945 336.553 225.266 330.072 225.266 330.072Z" fill="url(#paint15_linear_123_2)"/>
<path opacity="0.6" d="M249.655 332.98C235.823 333.164 233.625 318.69 225.266 330.072C233.785 329.797 240.609 336.484 250.319 336.553C260.029 336.461 266.876 329.797 275.373 330.072C272.556 318.69 262.411 332.82 249.655 332.98Z" fill="#D177B8"/>
<path opacity="0.5" d="M263.258 333.209C263.258 333.209 267.541 327.782 275.373 330.095L263.258 333.209Z" fill="url(#paint16_linear_123_2)"/>
<path opacity="0.5" d="M225.266 330.072C225.266 330.072 230.258 327.141 236.945 333.026L225.266 330.072Z" fill="url(#paint17_linear_123_2)"/>
<path opacity="0.6" d="M228.472 309.484C228.472 309.484 221.189 316.996 224.693 329.499C224.693 329.499 224.991 319.4 228.472 309.484Z" fill="#D177B8"/>
<path opacity="0.6" d="M273.014 309.484C273.014 309.484 280.296 316.996 276.793 329.499C276.793 329.499 276.472 319.4 273.014 309.484Z" fill="#D177B8"/>
<path opacity="0.6" d="M225.266 330.072C225.266 330.072 238.938 344.133 250.319 344.133C261.724 344.133 275.373 330.072 275.373 330.072C271.296 318.69 264.793 332.133 249.655 332.98C241.64 333.438 232.48 318.69 225.266 330.072Z" fill="#CF8F8F"/>
<path d="M261.105 322.881C260.991 321.209 262.754 319.331 264.105 319.492C265.457 319.675 264.77 323.293 264.105 323.98C263.441 324.69 261.105 322.881 261.105 322.881Z" fill="#FFCCB8"/>
</g>
<g clip-path="url(#clip3_123_2)">
<path d="M283.877 218.615C283.877 218.615 286.466 203.056 289.679 197.926C289.679 197.926 317.919 190.638 333.814 188.672C352.728 186.347 358.458 187.785 358.458 187.785C358.458 187.785 367.975 191.501 375.287 208.474C375.287 208.474 364.931 196.775 357.044 196.416C332.903 195.385 298.645 207.204 283.877 218.615Z" fill="url(#paint18_linear_123_2)"/>
<path d="M283.877 218.615C283.877 218.615 282.391 205.358 285.46 199.077H282.535C282.535 199.053 280.425 206.508 283.877 218.615Z" fill="url(#paint19_linear_123_2)"/>
<path d="M217.927 218.614C217.927 218.614 215.338 203.055 212.125 197.925C212.125 197.925 183.885 190.637 167.99 188.671C149.076 186.346 143.346 187.808 143.346 187.808C143.346 187.808 133.805 191.524 126.517 208.497C126.517 208.497 136.873 196.798 144.76 196.439C168.901 195.384 203.159 207.203 217.927 218.614Z" fill="url(#paint20_linear_123_2)"/>
<path d="M217.927 218.615C217.927 218.615 219.413 205.358 216.344 199.077H219.269C219.269 199.053 221.379 206.508 217.927 218.615Z" fill="url(#paint21_linear_123_2)"/>
</g>
<path d="M212.18 285.183C211.902 288.934 188.517 294.829 166.118 293.264C143.891 291.678 138.832 281.004 138.104 275.602C137.375 270.201 140.29 233.613 166.633 233.613C195.312 233.613 212.866 275.752 212.18 285.183Z" fill="url(#paint22_linear_123_2)"/>
<path d="M207.743 269.172C207.743 269.172 195.483 240.064 170.105 237.492C144.727 234.92 140.076 259.098 140.076 259.098C140.076 259.098 142.305 231.083 168.905 231.083C195.483 231.083 207.743 269.172 207.743 269.172Z" fill="#AD4C60"/>
<path d="M176.257 289.599C188.248 289.599 197.969 279.878 197.969 267.886C197.969 255.894 188.248 246.173 176.257 246.173C164.265 246.173 154.544 255.894 154.544 267.886C154.544 279.878 164.265 289.599 176.257 289.599Z" fill="url(#paint23_linear_123_2)"/>
<path d="M176.257 288.334C187.55 288.334 196.705 279.179 196.705 267.886C196.705 256.593 187.55 247.438 176.257 247.438C164.963 247.438 155.808 256.593 155.808 267.886C155.808 279.179 164.963 288.334 176.257 288.334Z" fill="url(#paint24_linear_123_2)"/>
<path d="M163.01 267.886C163.01 275.216 168.947 281.154 176.278 281.154C183.608 281.154 189.546 275.216 189.546 267.886C189.546 260.555 183.608 254.618 176.278 254.618C168.947 254.618 163.01 260.555 163.01 267.886Z" fill="black"/>
<path d="M161.746 264.049C163.053 265.207 156.966 265.485 152.422 263.706C148.349 262.099 146.399 259.505 146.784 259.034C147.17 258.562 156.558 259.441 161.746 264.049Z" fill="white"/>
<path d="M165.196 265.207C166.911 264.628 168.947 265.507 169.012 266.428C169.098 267.35 166.954 268.486 165.947 268.1C164.982 267.736 164.253 265.528 165.196 265.207Z" fill="white"/>
<path d="M210.851 277.488C210.851 277.488 209.329 286.212 205.643 289.084C205.643 289.084 212.652 287.155 212.845 285.783C213.059 284.412 210.851 277.488 210.851 277.488Z" fill="#AD4C60"/>
<path d="M200.756 290.477C200.756 290.477 184.509 296.286 164.746 294.464C144.984 292.642 135.596 282.847 135.596 282.847L138.79 278.41C138.79 278.41 143.269 291.078 164.253 293.221C185.43 295.386 200.756 290.477 200.756 290.477Z" fill="#AD4C60"/>
<path opacity="0.6" d="M211.109 277.488C211.109 277.488 198.698 247.802 170.726 246.173C142.776 244.544 138.811 266.6 138.811 266.6C138.811 266.6 141.447 237.171 167.147 236.378C192.825 235.606 207.743 266.321 211.109 277.488Z" fill="#AC91A5"/>
<path d="M208.558 271.08C208.558 271.08 194.668 241.136 169.097 238.778C143.526 236.421 138.254 269.172 138.254 269.172L127.129 263.556L134.824 256.654C134.824 256.654 145.648 229.669 170.169 233.827C195.397 238.114 208.558 271.08 208.558 271.08Z" fill="#4E1B3D"/>
<path d="M291.906 282.04C292.185 285.79 315.564 291.683 337.957 290.119C360.157 288.555 365.215 277.862 365.965 272.483C366.715 267.083 363.779 230.504 337.443 230.504C308.771 230.483 291.221 272.612 291.906 282.04Z" fill="url(#paint25_linear_123_2)"/>
<path d="M296.342 266.033C296.342 266.033 308.599 236.933 333.971 234.361C359.343 231.79 363.993 255.983 363.993 255.983C363.993 255.983 361.764 227.954 335.171 227.954C308.578 227.954 296.342 266.033 296.342 266.033Z" fill="#AD4C60"/>
<path d="M327.821 286.455C339.81 286.455 349.529 276.736 349.529 264.747C349.529 252.759 339.81 243.04 327.821 243.04C315.832 243.04 306.114 252.759 306.114 264.747C306.114 276.736 315.832 286.455 327.821 286.455Z" fill="url(#paint26_linear_123_2)"/>
<path d="M327.821 285.19C339.112 285.19 348.264 276.038 348.264 264.747C348.264 253.457 339.112 244.304 327.821 244.304C316.531 244.304 307.378 253.457 307.378 264.747C307.378 276.038 316.531 285.19 327.821 285.19Z" fill="url(#paint27_linear_123_2)"/>
<path d="M341.064 264.747C341.064 272.076 335.128 278.012 327.8 278.012C320.471 278.012 314.535 272.076 314.535 264.747C314.535 257.419 320.471 251.483 327.8 251.483C335.128 251.483 341.064 257.419 341.064 264.747Z" fill="black"/>
<path d="M342.329 260.912C341.021 262.069 347.107 262.347 351.65 260.569C355.722 258.962 357.672 256.369 357.286 255.897C356.9 255.447 347.514 256.304 342.329 260.912Z" fill="white"/>
<path d="M338.878 262.069C337.164 261.49 335.128 262.369 335.064 263.29C334.978 264.212 337.121 265.347 338.128 264.962C339.093 264.597 339.821 262.39 338.878 262.069Z" fill="white"/>
<path d="M293.235 274.347C293.235 274.347 294.756 283.069 298.442 285.94C298.442 285.94 291.435 284.012 291.242 282.64C291.028 281.269 293.235 274.347 293.235 274.347Z" fill="#AD4C60"/>
<path d="M303.328 287.333C303.328 287.333 319.571 293.141 339.328 291.319C359.086 289.498 368.472 279.705 368.472 279.705L365.279 275.269C365.279 275.269 360.779 287.933 339.821 290.076C318.65 292.241 303.328 287.333 303.328 287.333Z" fill="#AD4C60"/>
<path opacity="0.6" d="M293.235 274.347C293.235 274.347 305.642 244.669 333.607 243.04C361.55 241.411 365.514 263.462 365.514 263.462C365.514 263.462 362.857 234.04 337.186 233.247C311.492 232.476 296.599 263.183 293.235 274.347Z" fill="#AC91A5"/>
<path d="M295.528 267.94C295.528 267.94 309.414 238.004 334.978 235.647C360.543 233.29 365.836 266.012 365.836 266.012L376.957 260.397L369.265 253.497C369.265 253.497 358.443 226.518 333.928 230.676C308.685 234.983 295.528 267.94 295.528 267.94Z" fill="#4E1B3D"/>
<path opacity="0.6" d="M371.425 359.314C371.425 359.314 347.967 384.744 359.003 379.477C287.278 365.887 266.491 296.872 266.491 296.872C284.784 279.411 350.674 296.557 390.587 279.095C399.656 275.128 376.465 347.049 371.425 359.314Z" fill="url(#paint28_linear_123_2)" fill-opacity="0.3"/>
<path d="M253.76 37.6316V82.3435C253.76 82.3435 229.411 89.4004 205.762 105.992C181.359 123.069 144.781 164.872 125.711 224.937C110.897 271.642 113.968 385.631 138.048 464.873C144.889 487.498 153.508 507.269 163.851 521.867C163.097 521.382 146.29 510.339 131.583 477.101C125.334 462.988 119.463 444.833 115.368 421.777C114.83 418.76 114.345 415.798 113.914 412.996C113.914 412.996 115.53 478.287 146.344 520.521L132.391 525.907C132.391 525.907 70.2794 470.314 66.8856 312.421C66.8317 308.866 66.7779 305.203 66.724 301.54C66.724 301.54 66.5085 302.563 66.1853 304.449C63.1686 322.926 49.9166 426.733 119.193 517.288C117.308 515.726 53.7952 465.196 53.2027 333.592C52.9872 286.187 58.5896 244.276 66.7779 208.453V208.399C81.6998 143.109 105.241 98.0735 118.008 77.172C142.196 37.6316 192.995 19.4774 253.76 37.6316Z" fill="url(#paint29_linear_123_2)"/>
<path d="M440.389 266.417C448.738 418.976 371.112 524.076 371.112 524.076L360.877 519.497C360.877 519.497 360.877 519.497 360.877 519.443C360.877 519.335 360.931 519.174 361.038 518.958C362.17 515.511 368.688 495.794 376.283 467.513C376.283 467.459 376.337 467.351 376.337 467.243C392.768 405.832 413.992 304.449 395.677 242.067C369.28 152.213 323.868 100.336 319.72 95.7032C319.666 95.5955 319.612 95.5416 319.559 95.4877C319.505 95.4877 319.505 95.4339 319.505 95.4339C319.505 95.4877 319.559 95.4877 319.612 95.5416C320.151 96.188 321.983 98.5583 324.622 102.491C324.999 103.03 325.376 103.568 325.754 104.107C326.023 104.484 326.238 104.807 326.508 105.184C342.076 128.348 378.492 191.268 384.956 280.8C392.983 392.095 358.83 510.77 356.836 517.342C372.836 447.096 375.368 383.637 370.681 328.636C359.638 199.025 308.408 116.712 298.118 105.023C283.466 88.4308 252.706 82.2358 252.706 82.2358V37.6316C252.706 37.6316 302.266 26.5883 324.999 31.2749C347.732 36.0155 433.763 87.4073 451.593 246.593C453.21 260.976 454.179 274.713 454.718 287.911C459.782 418.76 415.339 490.246 413.992 492.347C461.883 372.54 440.389 266.417 440.389 266.417Z" fill="url(#paint30_linear_123_2)"/>
<path d="M253.76 82.2896C253.76 82.2896 229.411 89.3466 205.762 105.938C181.359 123.069 144.781 164.872 125.711 224.937C110.897 271.642 113.968 385.631 138.048 464.873L137.347 467.189C137.347 467.189 101.039 333.323 113.968 246.593C126.843 159.862 197.735 77.8723 217.182 72.3237C236.575 66.829 253.76 82.2896 253.76 82.2896Z" fill="url(#paint31_linear_123_2)"/>
<path d="M119.301 517.234C117.308 515.726 53.7952 465.196 53.2027 333.592C52.9872 286.187 58.5896 244.276 66.7779 208.453C63.815 242.876 63.9766 275.036 66.2392 304.395C63.2224 322.872 50.0243 426.679 119.301 517.234Z" fill="url(#paint32_linear_123_2)"/>
<path d="M146.397 520.521L132.445 525.908C132.445 525.908 70.3333 470.314 66.9395 312.421C77.2825 426.087 117.846 496.926 119.301 499.404C83.4236 419.138 89.8341 272.989 89.8341 272.989C93.8205 426.679 121.779 488.899 122.641 490.784C112.837 455.769 113.968 412.943 113.968 412.943C113.968 412.943 115.584 478.233 146.397 520.521Z" fill="url(#paint33_linear_123_2)"/>
<path d="M372.112 329.606L371.735 328.69C360.692 199.079 309.461 116.766 299.172 105.077C284.52 88.4847 253.76 82.2896 253.76 82.2896C253.76 82.2896 287.913 77.8723 299.172 84.2828C310.377 90.7472 363.439 171.713 372.112 329.606Z" fill="url(#paint34_linear_123_2)"/>
<path d="M441.388 266.417C449.738 418.976 372.112 524.076 372.112 524.076L361.877 519.497C361.877 519.497 361.877 519.497 361.877 519.443C361.877 519.335 361.984 519.174 362.038 518.958C363.277 515.618 370.226 496.764 377.283 467.513C377.283 467.459 377.337 467.351 377.337 467.243C393.768 405.832 410.983 304.447 392.667 242.066C366.271 152.211 324.868 100.336 320.72 95.7032C325.73 100.174 390.051 159.539 413.592 251.01C438.102 346.252 370.873 499.404 370.873 499.404C370.873 499.404 432.662 411.057 429.914 277.029C429.914 277.029 437.941 359.881 407.828 437.776C408.905 435.945 448.068 369.039 438.964 232.263C438.964 232.263 447.53 257.151 455.772 287.857C460.835 418.707 416.393 490.192 415.046 492.293C462.883 372.54 441.388 266.417 441.388 266.417Z" fill="url(#paint35_linear_123_2)"/>
<path opacity="0.6" d="M253.76 38.1509C253.76 38.1509 258.231 65.6991 253.76 81.8062C253.76 81.8062 286.89 72.9715 297.448 76.6886C297.448 76.6886 288.075 69.7932 275.577 69.7932C275.577 69.7932 267.497 65.1604 265.881 60.797C264.265 56.4335 270.348 34.0749 270.348 34.0749L253.76 38.1509Z" fill="#8E6A68"/>
<path d="M158.787 135.513C158.787 135.513 161.75 125.816 161.05 122.584C160.35 119.352 146.505 115.204 134.762 107.608C123.018 100.013 131.152 74.3708 130.183 71.1386C129.213 67.9603 123.772 68.7683 123.772 68.7683C123.772 68.7683 133.63 56.3244 142.465 50.5603C142.465 50.5603 130.075 68.9838 139.502 87.3534C148.929 105.669 184.591 100.767 184.591 100.767C184.591 100.767 166.922 122.369 158.787 135.513Z" fill="#8E6A68"/>
<path d="M316.141 106.639C316.141 106.639 325.568 120.807 334.241 144.24C334.241 144.24 340.975 135.998 346.147 137.183C346.147 137.183 336.396 117.844 328.477 106.639H316.141V106.639Z" fill="#8E6A68"/>
<path d="M331.979 106.639C331.979 106.639 337.15 108.955 348.894 99.0432C360.638 89.1311 363.762 52.7151 363.762 52.7151C363.762 52.7151 378.415 65.3745 385.956 74.6401C385.956 74.6401 378.792 73.9398 375.129 76.2562C371.465 78.5726 373.297 102.275 367.802 116.82C362.254 131.365 354.658 125.816 354.981 133.197L331.979 106.639Z" fill="#8E6A68"/>
<path d="M368.86 525.403C364.116 535.938 269.707 543.786 269.707 543.786C266.602 543.992 173.871 543.786 137.529 525.403C137.045 525.197 184.709 502.131 194.081 497.756C202.384 495.664 212.991 504.766 236.176 506.793C236.216 506.793 236.297 506.793 236.297 506.793C239.442 507.068 242.708 507.274 246.095 507.378C270.933 507.996 274.338 509.835 304.319 495.664C328.411 503.018 368.86 525.403 368.86 525.403Z" fill="white"/>
</g>
<defs>
<linearGradient id="paint0_linear_123_2" x1="252.256" y1="532.795" x2="252.256" y2="422.296" gradientUnits="userSpaceOnUse">
<stop stop-color="#FFB39D"/>
<stop offset="0.2251" stop-color="#FF9B8E"/>
<stop offset="0.4833" stop-color="#FF8781"/>
<stop offset="0.742" stop-color="#FF7B7A"/>
<stop offset="1" stop-color="#FF7777"/>
</linearGradient>
<linearGradient id="paint1_linear_123_2" x1="412.041" y1="341.354" x2="412.041" y2="231.084" gradientUnits="userSpaceOnUse">
<stop stop-color="#FFB39D"/>
<stop offset="0.2251" stop-color="#FF9B8E"/>
<stop offset="0.4833" stop-color="#FF8781"/>
<stop offset="0.742" stop-color="#FF7B7A"/>
<stop offset="1" stop-color="#FF7777"/>
</linearGradient>
<linearGradient id="paint2_linear_123_2" x1="412.069" y1="322.477" x2="412.069" y2="250.584" gradientUnits="userSpaceOnUse">
<stop stop-color="#F7CAC4"/>
<stop offset="0.423218" stop-color="#EEBCB9"/>
<stop offset="1" stop-color="#E1AAAA"/>
</linearGradient>
<linearGradient id="paint3_linear_123_2" x1="399.098" y1="314.219" x2="399.098" y2="278.976" gradientUnits="userSpaceOnUse">
<stop stop-color="#F6CAC4"/>
<stop offset="0.9944" stop-color="#E1AAAA"/>
</linearGradient>
<linearGradient id="paint4_linear_123_2" x1="89.1559" y1="341.354" x2="89.1559" y2="231.084" gradientUnits="userSpaceOnUse">
<stop stop-color="#FFB39D"/>
<stop offset="0.2251" stop-color="#FF9B8E"/>
<stop offset="0.4833" stop-color="#FF8781"/>
<stop offset="0.742" stop-color="#FF7B7A"/>
<stop offset="1" stop-color="#FF7777"/>
</linearGradient>
<linearGradient id="paint5_linear_123_2" x1="89.1279" y1="322.477" x2="89.1279" y2="250.584" gradientUnits="userSpaceOnUse">
<stop stop-color="#F6CAC4"/>
<stop offset="0.458333" stop-color="#EEBCB9"/>
<stop offset="0.9944" stop-color="#E1AAAA"/>
</linearGradient>
<linearGradient id="paint6_linear_123_2" x1="102.098" y1="314.219" x2="102.098" y2="278.976" gradientUnits="userSpaceOnUse">
<stop stop-color="#F6CAC4"/>
<stop offset="0.9944" stop-color="#E1AAAA"/>
</linearGradient>
<linearGradient id="paint7_linear_123_2" x1="250.846" y1="437.908" x2="250.846" y2="46.326" gradientUnits="userSpaceOnUse">
<stop stop-color="#FFAA96"/>
<stop offset="0.4274" stop-color="#F9AB99"/>
<stop offset="0.5507" stop-color="#FBA38F"/>
<stop offset="0.7754" stop-color="#FE9983"/>
<stop offset="1" stop-color="#FF967F"/>
</linearGradient>
<linearGradient id="paint8_linear_123_2" x1="170.671" y1="306.515" x2="170.671" y2="187.356" gradientUnits="userSpaceOnUse">
<stop stop-color="#F0BD98"/>
<stop offset="0.9944" stop-color="#C95C45"/>
</linearGradient>
<linearGradient id="paint9_linear_123_2" x1="333.194" y1="306.517" x2="333.194" y2="187.36" gradientUnits="userSpaceOnUse">
<stop stop-color="#F0BD98"/>
<stop offset="1" stop-color="#C95C45"/>
</linearGradient>
<linearGradient id="paint10_linear_123_2" x1="131.156" y1="278.876" x2="131.156" y2="69.9363" gradientUnits="userSpaceOnUse">
<stop stop-color="#FFEADB"/>
<stop offset="0.9944" stop-color="#D177F4"/>
</linearGradient>
<linearGradient id="paint11_linear_123_2" x1="370.536" y1="278.876" x2="370.536" y2="69.9363" gradientUnits="userSpaceOnUse">
<stop stop-color="#FFEADB"/>
<stop offset="0.9944" stop-color="#D177F4"/>
</linearGradient>
<linearGradient id="paint12_linear_123_2" x1="319.259" y1="110.366" x2="319.259" y2="103.528" gradientUnits="userSpaceOnUse">
<stop offset="0.00558659" stop-color="#D177F4"/>
<stop offset="1" stop-color="#FFEADB"/>
</linearGradient>
<linearGradient id="paint13_linear_123_2" x1="172.757" y1="294.939" x2="172.757" y2="377.14" gradientUnits="userSpaceOnUse">
<stop stop-color="#EDB591" stop-opacity="0.964167"/>
<stop offset="1" stop-color="#E96144" stop-opacity="0.4"/>
</linearGradient>
<linearGradient id="paint14_linear_123_2" x1="132.258" y1="76.3512" x2="144.369" y2="76.3512" gradientUnits="userSpaceOnUse">
<stop offset="0.016" stop-color="#C59393"/>
<stop offset="0.9944" stop-color="#F6CAC4"/>
</linearGradient>
<linearGradient id="paint15_linear_123_2" x1="250.891" y1="336.56" x2="250.891" y2="300.828" gradientUnits="userSpaceOnUse">
<stop stop-color="#F97A7E"/>
<stop offset="0.0817" stop-color="#FA7D7E"/>
<stop offset="0.5411" stop-color="#FE897F"/>
<stop offset="1" stop-color="#FF8D7F"/>
</linearGradient>
<linearGradient id="paint16_linear_123_2" x1="263.258" y1="331.351" x2="275.369" y2="331.351" gradientUnits="userSpaceOnUse">
<stop offset="0.016" stop-color="#C59393"/>
<stop offset="0.9944" stop-color="#F6CAC4"/>
</linearGradient>
<linearGradient id="paint17_linear_123_2" x1="225.26" y1="331.185" x2="236.95" y2="331.185" gradientUnits="userSpaceOnUse">
<stop offset="0.016" stop-color="#7C51B3"/>
<stop offset="0.9944" stop-color="#BD89C4"/>
</linearGradient>
<linearGradient id="paint18_linear_123_2" x1="283.883" y1="202.979" x2="375.282" y2="202.979" gradientUnits="userSpaceOnUse">
<stop stop-color="#4F0E40"/>
<stop offset="1" stop-color="#842149"/>
</linearGradient>
<linearGradient id="paint19_linear_123_2" x1="283.674" y1="218.605" x2="283.674" y2="199.059" gradientUnits="userSpaceOnUse">
<stop stop-color="#4F0E40"/>
<stop offset="1" stop-color="#842149"/>
</linearGradient>
<linearGradient id="paint20_linear_123_2" x1="217.915" y1="202.978" x2="126.517" y2="202.978" gradientUnits="userSpaceOnUse">
<stop stop-color="#4F0E40"/>
<stop offset="1" stop-color="#842149"/>
</linearGradient>
<linearGradient id="paint21_linear_123_2" x1="218.124" y1="218.605" x2="218.124" y2="199.059" gradientUnits="userSpaceOnUse">
<stop stop-color="#4F0E40"/>
<stop offset="1" stop-color="#842149"/>
</linearGradient>
<linearGradient id="paint22_linear_123_2" x1="175.097" y1="293.507" x2="175.097" y2="233.606" gradientUnits="userSpaceOnUse">
<stop stop-color="#EEE2FF"/>
<stop offset="0.996" stop-color="#BDC9FB"/>
</linearGradient>
<linearGradient id="paint23_linear_123_2" x1="176.265" y1="289.596" x2="176.265" y2="246.169" gradientUnits="userSpaceOnUse">
<stop stop-color="#ACA1DB"/>
<stop offset="1" stop-color="#6A518A"/>
</linearGradient>
<linearGradient id="paint24_linear_123_2" x1="176.265" y1="288.326" x2="176.265" y2="247.439" gradientUnits="userSpaceOnUse">
<stop stop-color="#7C695B"/>
<stop offset="0.9637" stop-color="#562F23"/>
</linearGradient>
<linearGradient id="paint25_linear_123_2" x1="328.981" y1="290.362" x2="328.981" y2="230.476" gradientUnits="userSpaceOnUse">
<stop stop-color="#EEE2FF"/>
<stop offset="0.996" stop-color="#BDC9FB"/>
</linearGradient>
<linearGradient id="paint26_linear_123_2" x1="327.813" y1="286.452" x2="327.813" y2="243.035" gradientUnits="userSpaceOnUse">
<stop stop-color="#ACA1DB"/>
<stop offset="1" stop-color="#6A518A"/>
</linearGradient>
<linearGradient id="paint27_linear_123_2" x1="327.813" y1="285.182" x2="327.813" y2="244.305" gradientUnits="userSpaceOnUse">
<stop stop-color="#7C695B"/>
<stop offset="0.9637" stop-color="#562F23"/>
</linearGradient>
<linearGradient id="paint28_linear_123_2" x1="322.391" y1="302.002" x2="322.391" y2="384.202" gradientUnits="userSpaceOnUse">
<stop stop-color="#EDB591" stop-opacity="0.964167"/>
<stop offset="1" stop-color="#E96144" stop-opacity="0.4"/>
</linearGradient>
<linearGradient id="paint29_linear_123_2" x1="153.494" y1="525.88" x2="153.494" y2="30.5622" gradientUnits="userSpaceOnUse">
<stop stop-color="#AB4D4B"/>
<stop offset="1" stop-color="#9A3651"/>
</linearGradient>
<linearGradient id="paint30_linear_123_2" x1="353.993" y1="524.08" x2="353.993" y2="30.0898" gradientUnits="userSpaceOnUse">
<stop stop-color="#AB4D4B"/>
<stop offset="1" stop-color="#9A3651"/>
</linearGradient>
<linearGradient id="paint31_linear_123_2" x1="182.484" y1="467.203" x2="182.484" y2="71.1418" gradientUnits="userSpaceOnUse">
<stop stop-color="#C09391"/>
<stop offset="0.9944" stop-color="#8E6A68"/>
<stop offset="0.9945" stop-color="#8E6A68"/>
</linearGradient>
<linearGradient id="paint32_linear_123_2" x1="86.2421" y1="517.244" x2="86.2421" y2="208.435" gradientUnits="userSpaceOnUse">
<stop stop-color="#C09391"/>
<stop offset="0.9944" stop-color="#8E6A68"/>
</linearGradient>
<linearGradient id="paint33_linear_123_2" x1="106.656" y1="525.88" x2="106.656" y2="273" gradientUnits="userSpaceOnUse">
<stop offset="0.00558659" stop-color="#8E6A68"/>
<stop offset="1" stop-color="#C09391"/>
</linearGradient>
<linearGradient id="paint34_linear_123_2" x1="312.949" y1="329.584" x2="312.949" y2="80.8163" gradientUnits="userSpaceOnUse">
<stop stop-color="#C09391"/>
<stop offset="0.9944" stop-color="#8E6A68"/>
</linearGradient>
<linearGradient id="paint35_linear_123_2" x1="388.491" y1="524.08" x2="388.491" y2="95.728" gradientUnits="userSpaceOnUse">
<stop offset="0.00558659" stop-color="#8E6A68"/>
<stop offset="1" stop-color="#C09391"/>
</linearGradient>
<clipPath id="clip0_123_2">
<rect width="500" height="534.365" fill="white" transform="translate(0.731445)"/>
</clipPath>
<clipPath id="clip1_123_2">
<rect width="129" height="46.8679" fill="white" transform="translate(189.486 349.22)"/>
</clipPath>
<clipPath id="clip2_123_2">
<rect width="54" height="43.3282" fill="white" transform="translate(223.731 300.828)"/>
</clipPath>
<clipPath id="clip3_123_2">
<rect width="248.77" height="31.261" fill="white" transform="translate(126.517 187.354)"/>
</clipPath>
</defs>
</svg>
