<svg width="301" height="322" viewBox="0 0 301 322" fill="none" xmlns="http://www.w3.org/2000/svg">
<g clip-path="url(#clip0_109_2)">
<path d="M67.457 77.1365C67.457 77.1365 45.2519 239.38 95.4105 311.863H210.989C210.989 311.863 247.065 250.072 244.363 169.529C241.676 88.9856 210.989 51.2196 210.989 51.2196C210.989 51.2196 129.51 -5.94269 67.457 77.1365Z" fill="#651344"/>
<path d="M180.318 295.944C179.729 292.669 180.318 254.193 180.318 254.193L151.185 262.118L122.053 254.193C122.053 254.193 122.642 292.669 122.053 295.944C121.465 299.219 82.0081 316.487 82.0081 316.487C82.0081 316.487 113.344 320.487 151.185 320.487C189.027 320.487 220.363 316.487 220.363 316.487C220.363 316.487 180.906 299.219 180.318 295.944Z" fill="url(#paint0_linear_109_2)"/>
<path opacity="0.6" d="M122.25 272.291C122.25 272.291 151.004 291.023 180.061 285.378L180.317 254.193H122.053L122.25 272.291Z" fill="#CC5855"/>
<path d="M262.235 169.891C261.782 172.05 261.284 173.997 260.755 175.733C260.74 175.763 260.74 175.793 260.725 175.823C256.876 188.231 251.035 191.159 248.695 196.759C246.657 201.589 238.672 211.31 230.763 201.212C230.748 201.197 230.733 201.182 230.733 201.182C230.733 201.182 234.491 160.08 237.51 152.608C237.51 152.608 241.872 141.408 249.721 139.703C259.804 137.529 266.159 150.797 262.235 169.891Z" fill="url(#paint1_linear_109_2)"/>
<path opacity="0.6" d="M233.45 175.687C233.45 175.687 249.238 152.759 256.8 151.25C264.348 149.755 260.574 169.197 259.05 175.687C257.525 182.163 255.261 185.997 255.261 185.997C255.261 185.997 257.163 178.344 257.54 172.155C258.068 163.265 255.246 155.627 252.076 156.352C248.906 157.076 244.65 168.261 244.363 169.529C244.091 170.797 246.461 173.076 246.325 179.989C246.189 186.903 242.883 194.404 241.087 194.314C239.291 194.223 240.061 188.638 240.061 182.178C240.061 175.718 235.019 176.97 232.785 181.167L233.45 175.687Z" fill="url(#paint2_linear_109_2)"/>
<path opacity="0.6" d="M232.8 181.152C232.8 181.152 236.861 175.008 239.291 177.801C241.721 180.593 239.97 188.321 241.842 189.257C243.714 190.178 246.204 183.929 245.721 178.208C245.238 172.487 242.959 167.355 239.744 168.321L233.45 175.687L232.8 181.152Z" fill="url(#paint3_linear_109_2)"/>
<path d="M260.71 175.823C256.861 188.231 251.019 191.159 248.68 196.759C246.642 201.589 238.657 211.31 230.748 201.212C231.216 201.604 235.789 205.318 240.438 203.627C245.329 201.846 246.899 197.272 248.967 193.725C251.019 190.193 256.333 187.763 260.71 175.823Z" fill="#DD6B7C"/>
<path d="M38.159 169.891C38.6118 172.05 39.1099 173.997 39.6382 175.733C39.6533 175.763 39.6533 175.793 39.6684 175.823C43.5175 188.231 49.359 191.159 51.6986 196.759C53.7363 201.589 61.7212 211.31 69.6307 201.212C69.6458 201.197 69.6609 201.182 69.6609 201.182C69.6609 201.182 65.9024 160.08 62.8835 152.608C62.8835 152.608 58.5212 141.408 50.6722 139.703C40.5892 137.529 34.2193 150.797 38.159 169.891Z" fill="url(#paint4_linear_109_2)"/>
<path opacity="0.6" d="M66.9287 175.687C66.9287 175.687 51.1401 152.759 43.5778 151.25C36.0306 149.755 39.8042 169.197 41.3288 175.687C42.8533 182.163 45.1174 185.997 45.1174 185.997C45.1174 185.997 43.2156 178.344 42.8382 172.155C42.3099 163.265 45.1325 155.627 48.3023 156.352C51.4721 157.076 55.7288 168.261 56.0155 169.529C56.2872 170.797 53.9174 173.076 54.0533 179.989C54.1891 186.903 57.4948 194.404 59.291 194.314C61.0872 194.223 60.3174 188.638 60.3174 182.178C60.3174 175.718 65.3589 176.97 67.5929 181.167L66.9287 175.687Z" fill="url(#paint5_linear_109_2)"/>
<path opacity="0.6" d="M67.5929 181.152C67.5929 181.152 63.5325 175.008 61.1024 177.801C58.6722 180.593 60.4231 188.321 58.5514 189.257C56.6797 190.178 54.1892 183.929 54.6722 178.208C55.1552 172.487 57.4344 167.355 60.6495 168.321L66.9439 175.687L67.5929 181.152Z" fill="url(#paint6_linear_109_2)"/>
<path d="M39.6684 175.823C43.5174 188.231 49.359 191.159 51.6986 196.759C53.7363 201.589 61.7212 211.31 69.6307 201.212C69.1628 201.604 64.5892 205.318 59.9401 203.627C55.0495 201.846 53.4797 197.272 51.4118 193.725C49.3741 190.193 44.0608 187.763 39.6684 175.823Z" fill="#DD6B7C"/>
<path d="M241.525 148.533C241.51 148.563 241.51 148.578 241.51 148.593C239.518 158.646 237.072 169.227 235.397 181.363C230.929 213.378 221.404 228.095 199.653 242.238C176.861 257.061 170.023 262.842 150.34 263.566C130.657 262.827 123.819 257.061 101.027 242.238C79.2911 228.095 69.7364 213.393 65.2986 181.363C64.3024 174.223 63.0496 167.627 61.7817 161.363C60.8458 156.714 59.8949 152.231 59.0345 147.853C59.0194 147.778 59.0043 147.717 58.9892 147.672C58.9741 147.627 58.9741 147.612 58.9741 147.612C55.8345 131.551 53.9326 116.714 58.2345 98.8119C62.6722 80.2912 77.993 57.2874 101.299 42.7818C101.299 42.7818 101.299 42.7818 101.314 42.7818C101.329 42.7818 101.344 42.7667 101.344 42.7667C115.095 34.2082 131.623 28.6082 150.34 28.6082C200.861 28.6082 235.397 69.3327 242.446 98.8119C246.823 117.061 244.77 132.125 241.525 148.533Z" fill="url(#paint7_linear_109_2)"/>
<path opacity="0.6" d="M129.51 136.499C129.51 136.499 133.102 156.571 129.374 178.45C129.374 178.45 118.959 187.541 94.1136 183.831C69.2684 180.121 72.0608 135.453 75.9401 122.298C81.5702 103.178 122.204 117.352 129.51 136.499Z" fill="url(#paint8_linear_109_2)"/>
<path opacity="0.6" d="M171.155 131.159C171.155 131.159 167.563 153.454 171.291 177.755C171.291 177.755 181.706 187.854 206.551 183.733C231.397 179.612 232.001 142.027 228.136 127.416C222.491 106.193 178.476 109.891 171.155 131.159Z" fill="url(#paint9_linear_109_2)"/>
<path opacity="0.6" d="M241.51 148.593C239.517 158.646 237.072 169.227 235.397 181.363C230.929 213.378 221.404 228.095 199.653 242.238C176.861 257.061 170.023 262.842 150.34 263.566C130.657 262.827 123.819 257.061 101.027 242.238C79.291 228.095 69.7363 213.393 65.2986 181.363C63.5778 168.925 61.057 158.133 59.0344 147.868C59.6684 150.359 64.891 170.948 69.9929 191.838C75.4419 214.117 83.4721 227.838 107.608 244.895C130.068 260.759 143.155 262.087 149.797 262.147H150.929C157.585 262.087 170.672 260.759 193.117 244.895C217.253 227.853 225.283 214.132 230.732 191.838C235.517 172.321 240.378 153.106 241.51 148.593Z" fill="#C95C45"/>
<path opacity="0.6" d="M101.314 42.7818C100.302 43.5365 74.3854 62.6007 72.5288 80.2611C70.6269 98.2686 71.7741 118.555 65.9929 135.552C60.4231 151.929 63.8797 167.084 64.1363 168.14C63.9854 167.763 63.0797 165.287 61.7816 161.363C60.8458 156.714 59.8948 152.231 59.0344 147.854C59.0193 147.778 59.0042 147.718 58.9891 147.672C58.9741 147.627 58.974 147.612 58.974 147.612C55.8344 131.552 53.9325 116.714 58.2344 98.812C62.6722 80.2913 77.993 57.2875 101.314 42.7818C101.299 42.7818 101.299 42.7818 101.314 42.7818Z" fill="url(#paint10_linear_109_2)"/>
<path opacity="0.6" d="M199.366 42.7818C200.378 43.5365 226.295 62.6007 228.151 80.2611C230.053 98.2686 228.906 118.555 234.687 135.552C240.257 151.929 236.801 167.084 236.544 168.14C236.695 167.763 237.601 165.287 238.899 161.363C239.834 156.714 240.785 152.231 241.646 147.854C241.661 147.778 241.676 147.718 241.691 147.672C241.706 147.627 241.706 147.612 241.706 147.612C244.846 131.552 246.748 116.714 242.446 98.812C238.008 80.2913 222.687 57.2875 199.366 42.7818C199.382 42.7818 199.382 42.7818 199.366 42.7818Z" fill="url(#paint11_linear_109_2)"/>
<path d="M189.902 62.9327C190.219 63.3252 191.306 64.7139 192.876 67.0384C191.895 65.6648 190.914 64.3063 189.902 62.9327Z" fill="url(#paint12_linear_109_2)"/>
<path opacity="0.6" d="M74.0674 212.17C74.0674 212.17 88.1419 227.429 81.5203 224.268C117.321 236.317 138.275 185.429 138.275 185.429C127.299 174.952 122.873 165.727 68.9913 162.734C63.0608 162.404 71.0433 204.811 74.0674 212.17Z" fill="url(#paint13_linear_109_2)" fill-opacity="0.3"/>
<path opacity="0.5" d="M79.1882 47.7452C79.1882 47.7452 81.7576 44.4887 86.4569 45.8765L79.1882 47.7452Z" fill="url(#paint14_linear_109_2)"/>
<g clip-path="url(#clip1_109_2)">
<path d="M116.947 212.911C116.947 212.911 138.151 236.929 152.225 236.929C166.299 236.929 186.597 213.511 186.597 213.511C186.597 213.511 174.116 223.59 151.772 223.59C129.428 223.59 116.947 212.911 116.947 212.911Z" fill="#F36767"/>
<path d="M113.525 210.352C113.525 210.352 131.055 225.077 151.235 225.077C171.432 225.077 190.925 211.067 190.925 211.067C190.925 211.067 174.133 222.475 151.235 222.475C129.428 222.475 113.525 210.352 113.525 210.352Z" fill="#842751"/>
<path d="M152.728 222.446C152.661 222.446 152.644 222.446 152.644 222.446C151.353 222.532 136.272 223.29 120.52 214.512C120.319 214.426 120.151 214.326 120 214.24C119.749 214.097 119.48 213.94 119.229 213.797C119.027 213.683 118.91 213.597 118.809 213.554V213.54C119.447 213.783 126.677 216.456 136.322 217.3C136.339 217.3 136.373 217.3 136.373 217.3C137.681 217.414 139.04 217.5 140.449 217.543C150.782 217.8 152.426 221.174 152.678 222.175C152.728 222.332 152.728 222.446 152.728 222.446Z" fill="#BB4848"/>
<path d="M186.564 213.54C186.513 213.583 186.413 213.654 186.262 213.726C186.06 213.84 185.893 213.94 185.708 214.055C185.473 214.197 185.188 214.355 184.869 214.512C169.101 223.29 154.02 222.532 152.728 222.446C152.661 222.446 152.644 222.446 152.644 222.446C152.644 222.446 152.644 222.332 152.695 222.175C152.946 221.188 154.59 217.8 164.924 217.543C167.037 217.486 169.084 217.328 170.996 217.1L171.047 217.085C179.669 216.099 185.976 213.769 186.564 213.54Z" fill="#BB4848"/>
<path opacity="0.6" d="M171.03 217.085C179.669 216.099 185.976 213.769 186.564 213.54C186.513 213.583 186.413 213.654 186.262 213.726C186.06 213.84 185.893 213.94 185.708 214.055C185.473 214.197 185.188 214.355 184.869 214.512C183.527 215.213 181.581 216.085 179.501 216.513C175.794 217.285 170.996 217.1 170.996 217.1L171.03 217.085Z" fill="#D177B8"/>
<path opacity="0.6" d="M136.322 217.3C135.97 217.357 133.437 217.657 128.623 217.128C125.351 216.771 122.332 215.456 120.52 214.512C120.319 214.426 120.151 214.326 120 214.24C119.749 214.097 119.48 213.94 119.229 213.797C119.027 213.683 118.91 213.597 118.809 213.554C118.809 213.54 118.792 213.54 118.792 213.54C118.776 213.526 118.776 213.526 118.776 213.526L118.826 213.54C119.447 213.783 126.677 216.456 136.322 217.3Z" fill="#D177B8"/>
<path opacity="0.6" d="M129.495 225.077C129.495 225.077 142.277 235.942 151.772 235.942C161.267 235.942 176.163 223.933 176.163 223.933C176.163 223.933 161.25 238.473 151.772 238.473C142.294 238.473 129.495 225.077 129.495 225.077Z" fill="#D177B8"/>
</g>
<g clip-path="url(#clip2_109_2)">
<path d="M134.993 198.863C134.993 198.863 130.939 181.316 150.025 181.316C169.097 181.316 165.909 198.519 165.909 198.519L165.057 198.863C165.057 198.863 159.849 202.751 150.025 202.751C140.2 202.751 134.993 198.863 134.993 198.863Z" fill="url(#paint15_linear_109_2)"/>
<path opacity="0.6" d="M149.626 200.608C141.327 200.718 140.008 192.034 134.993 198.863C140.104 198.698 144.199 202.71 150.025 202.751C155.851 202.696 159.959 198.698 165.057 198.863C163.367 192.034 157.28 200.512 149.626 200.608Z" fill="#D177B8"/>
<path opacity="0.5" d="M157.788 200.745C157.788 200.745 160.358 197.489 165.057 198.876L157.788 200.745Z" fill="url(#paint16_linear_109_2)"/>
<path opacity="0.5" d="M134.993 198.863C134.993 198.863 137.988 197.104 142 200.635L134.993 198.863Z" fill="url(#paint17_linear_109_2)"/>
<path opacity="0.6" d="M136.916 186.51C136.916 186.51 132.547 191.017 134.649 198.519C134.649 198.519 134.828 192.46 136.916 186.51Z" fill="#D177B8"/>
<path opacity="0.6" d="M163.642 186.51C163.642 186.51 168.011 191.017 165.909 198.519C165.909 198.519 165.716 192.46 163.642 186.51Z" fill="#D177B8"/>
<path opacity="0.6" d="M134.993 198.863C134.993 198.863 143.196 207.299 150.025 207.299C156.868 207.299 165.057 198.863 165.057 198.863C162.611 192.034 158.709 200.099 149.626 200.608C144.817 200.883 139.321 192.034 134.993 198.863Z" fill="#CF8F8F"/>
<path d="M156.497 194.548C156.428 193.545 157.486 192.418 158.297 192.515C159.107 192.625 158.695 194.796 158.297 195.208C157.898 195.634 156.497 194.548 156.497 194.548Z" fill="#FFCCB8"/>
</g>
<g clip-path="url(#clip3_109_2)">
<path d="M170.16 131.989C170.16 131.989 171.713 122.653 173.641 119.575C173.641 119.575 190.585 115.202 200.121 114.023C211.47 112.628 214.908 113.491 214.908 113.491C214.908 113.491 220.618 115.72 225.005 125.904C225.005 125.904 218.792 118.885 214.059 118.669C199.575 118.051 179.02 125.142 170.16 131.989Z" fill="url(#paint18_linear_109_2)"/>
<path d="M170.16 131.988C170.16 131.988 169.268 124.034 171.109 120.266H169.354C169.354 120.251 168.088 124.725 170.16 131.988Z" fill="url(#paint19_linear_109_2)"/>
<path d="M130.589 131.988C130.589 131.988 129.036 122.653 127.108 119.575C127.108 119.575 110.164 115.202 100.628 114.022C89.2786 112.627 85.8409 113.505 85.8409 113.505C85.8409 113.505 80.1161 115.734 75.7434 125.918C75.7434 125.918 81.9572 118.899 86.6895 118.683C101.174 118.05 121.729 125.141 130.589 131.988Z" fill="url(#paint20_linear_109_2)"/>
<path d="M130.589 131.989C130.589 131.989 131.481 124.034 129.64 120.266H131.395C131.395 120.251 132.66 124.725 130.589 131.989Z" fill="url(#paint21_linear_109_2)"/>
</g>
<path d="M127.141 171.93C126.974 174.18 112.943 177.717 99.5042 176.778C86.1678 175.826 83.1327 169.422 82.6955 166.181C82.2582 162.94 84.0073 140.987 99.8128 140.987C117.02 140.987 127.553 166.271 127.141 171.93Z" fill="url(#paint22_linear_109_2)"/>
<path d="M124.479 162.323C124.479 162.323 117.123 144.858 101.896 143.315C86.6694 141.772 83.8787 156.278 83.8787 156.278C83.8787 156.278 85.2162 139.47 101.176 139.47C117.123 139.47 124.479 162.323 124.479 162.323Z" fill="#AD4C60"/>
<path d="M105.587 174.579C112.782 174.579 118.615 168.746 118.615 161.551C118.615 154.356 112.782 148.523 105.587 148.523C98.3922 148.523 92.5595 154.356 92.5595 161.551C92.5595 168.746 98.3922 174.579 105.587 174.579Z" fill="url(#paint23_linear_109_2)"/>
<path d="M105.587 173.82C112.363 173.82 117.856 168.327 117.856 161.551C117.856 154.775 112.363 149.282 105.587 149.282C98.8113 149.282 93.3183 154.775 93.3183 161.551C93.3183 168.327 98.8113 173.82 105.587 173.82Z" fill="url(#paint24_linear_109_2)"/>
<path d="M97.6394 161.551C97.6394 165.949 101.202 169.512 105.6 169.512C109.998 169.512 113.561 165.949 113.561 161.551C113.561 157.153 109.998 153.59 105.6 153.59C101.202 153.59 97.6394 157.153 97.6394 161.551Z" fill="black"/>
<path d="M96.8806 159.249C97.6651 159.944 94.0127 160.111 91.2863 159.043C88.8428 158.079 87.6725 156.523 87.904 156.24C88.1355 155.957 93.7684 156.484 96.8806 159.249Z" fill="white"/>
<path d="M98.9512 159.944C99.98 159.596 101.202 160.124 101.24 160.677C101.292 161.23 100.006 161.911 99.4013 161.68C98.8226 161.461 98.3853 160.136 98.9512 159.944Z" fill="white"/>
<path d="M126.344 167.313C126.344 167.313 125.431 172.547 123.219 174.27C123.219 174.27 127.424 173.113 127.54 172.29C127.669 171.467 126.344 167.313 126.344 167.313Z" fill="#AD4C60"/>
<path d="M120.287 175.106C120.287 175.106 110.539 178.591 98.6811 177.498C86.8237 176.405 81.1908 170.528 81.1908 170.528L83.107 167.866C83.107 167.866 85.7949 175.466 98.3853 176.752C111.092 178.051 120.287 175.106 120.287 175.106Z" fill="#AD4C60"/>
<path opacity="0.6" d="M126.498 167.313C126.498 167.313 119.052 149.501 102.269 148.523C85.4991 147.546 83.1199 160.78 83.1199 160.78C83.1199 160.78 84.7017 143.122 100.122 142.646C115.528 142.183 124.479 160.612 126.498 167.313Z" fill="#AC91A5"/>
<path d="M124.968 163.467C124.968 163.467 116.634 145.501 101.292 144.087C85.9492 142.672 82.7855 162.323 82.7855 162.323L76.1109 158.953L80.7278 154.812C80.7278 154.812 87.2224 138.621 101.935 141.116C117.072 143.688 124.968 163.467 124.968 163.467Z" fill="#4E1B3D"/>
<path d="M174.977 170.044C175.144 172.294 189.172 175.83 202.608 174.891C215.928 173.952 218.962 167.537 219.412 164.31C219.862 161.069 218.101 139.122 202.299 139.122C185.096 139.109 174.566 164.387 174.977 170.044Z" fill="url(#paint25_linear_109_2)"/>
<path d="M177.639 160.439C177.639 160.439 184.993 142.979 200.216 141.436C215.439 139.893 218.229 154.409 218.229 154.409C218.229 154.409 216.892 137.592 200.936 137.592C184.98 137.592 177.639 160.439 177.639 160.439Z" fill="#AD4C60"/>
<path d="M196.526 172.692C203.719 172.692 209.55 166.861 209.55 159.668C209.55 152.475 203.719 146.644 196.526 146.644C189.333 146.644 183.502 152.475 183.502 159.668C183.502 166.861 189.333 172.692 196.526 172.692Z" fill="url(#paint26_linear_109_2)"/>
<path d="M196.526 171.934C203.3 171.934 208.792 166.442 208.792 159.668C208.792 152.894 203.3 147.402 196.526 147.402C189.752 147.402 184.26 152.894 184.26 159.668C184.26 166.442 189.752 171.934 196.526 171.934Z" fill="url(#paint27_linear_109_2)"/>
<path d="M204.472 159.668C204.472 164.065 200.91 167.627 196.513 167.627C192.116 167.627 188.554 164.065 188.554 159.668C188.554 155.271 192.116 151.709 196.513 151.709C200.91 151.709 204.472 155.271 204.472 159.668Z" fill="black"/>
<path d="M205.23 157.367C204.446 158.061 208.098 158.228 210.823 157.161C213.266 156.197 214.436 154.641 214.205 154.358C213.973 154.088 208.342 154.602 205.23 157.367Z" fill="white"/>
<path d="M203.16 158.061C202.132 157.714 200.91 158.241 200.872 158.794C200.82 159.347 202.106 160.028 202.71 159.797C203.289 159.578 203.726 158.254 203.16 158.061Z" fill="white"/>
<path d="M175.774 165.428C175.774 165.428 176.687 170.661 178.899 172.384C178.899 172.384 174.694 171.227 174.579 170.404C174.45 169.581 175.774 165.428 175.774 165.428Z" fill="#AD4C60"/>
<path d="M181.83 173.22C181.83 173.22 191.576 176.704 203.43 175.611C215.285 174.518 220.916 168.642 220.916 168.642L219.001 165.981C219.001 165.981 216.301 173.58 203.726 174.865C191.023 176.164 181.83 173.22 181.83 173.22Z" fill="#AD4C60"/>
<path opacity="0.6" d="M175.774 165.428C175.774 165.428 183.219 147.621 199.997 146.644C216.763 145.666 219.142 158.897 219.142 158.897C219.142 158.897 217.548 141.244 202.145 140.768C186.729 140.305 177.793 158.729 175.774 165.428Z" fill="#AC91A5"/>
<path d="M177.15 161.584C177.15 161.584 185.482 143.622 200.82 142.208C216.159 140.793 219.335 160.427 219.335 160.427L226.008 157.058L221.392 152.918C221.392 152.918 214.899 136.731 200.19 139.225C185.044 141.809 177.15 161.584 177.15 161.584Z" fill="#4E1B3D"/>
<path opacity="0.6" d="M222.688 216.408C222.688 216.408 208.614 231.666 215.235 228.506C172.2 220.352 159.728 178.943 159.728 178.943C170.703 168.466 210.238 178.754 234.185 168.277C239.627 165.896 225.712 209.049 222.688 216.408Z" fill="url(#paint28_linear_109_2)" fill-opacity="0.3"/>
<path d="M152.089 23.3985V50.2257C152.089 50.2257 137.48 54.4599 123.291 64.415C108.649 74.6611 86.7021 99.7428 75.2602 135.782C66.3717 163.805 68.214 232.198 82.6619 279.743C86.7668 293.319 91.9383 305.181 98.1441 313.94C97.6916 313.649 87.6071 307.023 78.7833 287.081C75.0339 278.612 71.5108 267.72 69.0544 253.886C68.7311 252.076 68.4403 250.298 68.1817 248.618C68.1817 248.618 69.1513 287.792 87.6395 313.132L79.2681 316.364C79.2681 316.364 42.0009 283.008 39.9647 188.273C39.9323 186.139 39.9 183.941 39.8677 181.743C39.8677 181.743 39.7384 182.358 39.5445 183.489C37.7345 194.575 29.7833 256.86 71.3492 311.193C70.218 310.255 32.1104 279.937 31.7549 200.975C31.6256 172.532 34.9871 147.385 39.9 125.891V125.859C48.8532 86.6848 62.9778 59.6637 70.6381 47.1228C85.1507 23.3985 115.63 12.506 152.089 23.3985Z" fill="url(#paint29_linear_109_2)"/>
<path d="M264.666 160.67C269.676 252.205 223.1 315.265 223.1 315.265L216.959 312.518C216.959 312.518 216.959 312.518 216.959 312.485C216.959 312.421 216.992 312.324 217.056 312.195C217.735 310.126 221.646 298.296 226.203 281.327C226.203 281.295 226.236 281.23 226.236 281.166C236.094 244.319 248.829 183.489 237.839 146.06C222.002 92.1472 194.754 61.0212 192.265 58.2415C192.233 58.1769 192.201 58.1446 192.168 58.1122C192.136 58.1122 192.136 58.0799 192.136 58.0799C192.136 58.1122 192.168 58.1122 192.201 58.1446C192.524 58.5324 193.623 59.9546 195.207 62.3141C195.433 62.6373 195.659 62.9605 195.885 63.2837C196.047 63.51 196.176 63.7039 196.338 63.9302C205.679 77.8286 227.529 115.581 231.407 169.3C236.223 236.077 215.731 307.282 214.535 311.225C224.135 269.077 225.654 231.002 222.842 198.001C216.216 120.235 185.478 70.8471 179.304 63.8332C170.513 53.8781 152.057 50.1611 152.057 50.1611V23.3985C152.057 23.3985 181.793 16.7725 195.433 19.5845C209.073 22.4289 260.691 53.2639 271.389 148.775C272.359 157.405 272.941 165.647 273.264 173.566C276.302 252.076 249.637 294.967 248.829 296.228C277.563 224.344 264.666 160.67 264.666 160.67Z" fill="url(#paint30_linear_109_2)"/>
<path d="M152.089 50.1934C152.089 50.1934 137.48 54.4275 123.29 64.3827C108.649 74.661 86.7021 99.7428 75.2601 135.782C66.3716 163.805 68.214 232.198 82.6619 279.743L82.2417 281.133C82.2417 281.133 60.4567 200.813 68.214 148.775C75.9389 96.7369 118.474 47.543 130.143 44.2138C141.779 40.917 152.089 50.1934 152.089 50.1934Z" fill="url(#paint31_linear_109_2)"/>
<path d="M71.4138 311.16C70.2179 310.255 32.1104 279.937 31.7549 200.975C31.6256 172.532 34.9871 147.385 39.9 125.891C38.1223 146.545 38.2193 165.841 39.5768 183.457C37.7668 194.543 29.8479 256.827 71.4138 311.16Z" fill="url(#paint32_linear_109_2)"/>
<path d="M87.6718 313.132L79.3004 316.364C79.3004 316.364 42.0333 283.008 39.997 188.272C46.2028 256.472 70.5412 298.975 71.4139 300.462C49.8875 252.302 53.7338 164.613 53.7338 164.613C56.1256 256.827 72.9007 294.159 73.4178 295.29C67.5352 274.281 68.214 248.585 68.214 248.585C68.214 248.585 69.1837 287.759 87.6718 313.132Z" fill="url(#paint33_linear_109_2)"/>
<path d="M223.101 198.583L222.874 198.034C216.248 120.267 185.51 70.8794 179.337 63.8655C170.545 53.9104 152.089 50.1934 152.089 50.1934C152.089 50.1934 172.581 47.543 179.337 51.3893C186.06 55.2679 217.897 103.848 223.101 198.583Z" fill="url(#paint34_linear_109_2)"/>
<path d="M264.667 160.67C269.676 252.205 223.101 315.265 223.101 315.265L216.959 312.518C216.959 312.518 216.959 312.518 216.959 312.485C216.959 312.421 217.024 312.324 217.056 312.194C217.8 310.191 221.969 298.878 226.203 281.327C226.203 281.295 226.236 281.23 226.236 281.165C236.094 244.319 246.423 183.488 235.434 146.059C219.596 92.1461 194.754 61.0212 192.266 58.2415C195.271 60.9242 233.864 96.5429 247.988 151.425C262.695 208.571 222.357 300.462 222.357 300.462C222.357 300.462 259.43 247.454 257.782 167.037C257.782 167.037 262.598 216.748 244.53 263.485C245.176 262.386 268.674 222.243 263.212 140.177C263.212 140.177 268.351 155.11 273.296 173.534C276.335 252.043 249.669 294.935 248.861 296.195C277.563 224.344 264.667 160.67 264.667 160.67Z" fill="url(#paint35_linear_109_2)"/>
<path opacity="0.6" d="M152.089 23.3985C152.089 23.3985 154.772 36.9091 152.089 46.5733C152.089 46.5733 171.967 41.2725 178.302 43.5027C178.302 43.5027 172.678 39.3655 165.18 39.3655C165.18 39.3655 160.331 36.5859 159.362 33.9678C158.392 31.3497 162.853 21.2976 162.853 21.2976L152.089 23.3985Z" fill="#8E6A68"/>
<path d="M95.1058 82.1274C95.1058 82.1274 96.8835 76.3094 96.4633 74.3701C96.0431 72.4308 87.7364 69.942 80.6902 65.3846C73.6441 60.8273 78.5247 45.442 77.9429 43.5027C77.3611 41.5957 74.0966 42.0806 74.0966 42.0806C74.0966 42.0806 80.0115 34.6142 85.3122 31.1558C85.3122 31.1558 77.8782 42.2099 83.5345 53.2316C89.1909 64.2211 110.588 61.2798 110.588 61.2798C110.588 61.2798 99.9864 74.2408 95.1058 82.1274Z" fill="#8E6A68"/>
<path d="M189.518 64.8029C189.518 64.8029 195.174 73.3035 200.378 87.3635C200.378 87.3635 204.418 82.4183 207.521 83.1294C207.521 83.1294 201.671 71.5258 196.92 64.8029H189.518Z" fill="#8E6A68"/>
<path d="M199.021 64.8028C199.021 64.8028 202.124 66.1927 209.17 60.2455C216.216 54.2982 218.091 32.4486 218.091 32.4486C218.091 32.4486 226.882 40.0443 231.407 45.6036C231.407 45.6036 227.108 45.1835 224.911 46.5733C222.713 47.9631 223.812 62.1848 220.515 70.9117C217.186 79.6386 212.628 76.3094 212.822 80.7375L199.021 64.8028Z" fill="#8E6A68"/>
<path d="M221.149 316.061C218.303 322.383 161.657 327.091 161.657 327.091C159.794 327.215 104.156 327.091 82.3505 316.061C82.0602 315.938 110.659 302.098 116.282 299.473C121.264 298.218 127.628 303.679 141.539 304.896C141.563 304.896 141.611 304.896 141.611 304.896C143.499 305.061 145.458 305.184 147.49 305.246C162.393 305.617 164.436 306.72 182.425 298.218C196.88 302.63 221.149 316.061 221.149 316.061Z" fill="white"/>
</g>
<defs>
<linearGradient id="paint0_linear_109_2" x1="151.187" y1="320.497" x2="151.187" y2="254.197" gradientUnits="userSpaceOnUse">
<stop stop-color="#FFB39D"/>
<stop offset="0.2251" stop-color="#FF9B8E"/>
<stop offset="0.4833" stop-color="#FF8781"/>
<stop offset="0.742" stop-color="#FF7B7A"/>
<stop offset="1" stop-color="#FF7777"/>
</linearGradient>
<linearGradient id="paint1_linear_109_2" x1="247.058" y1="205.632" x2="247.058" y2="139.47" gradientUnits="userSpaceOnUse">
<stop stop-color="#FFB39D"/>
<stop offset="0.2251" stop-color="#FF9B8E"/>
<stop offset="0.4833" stop-color="#FF8781"/>
<stop offset="0.742" stop-color="#FF7B7A"/>
<stop offset="1" stop-color="#FF7777"/>
</linearGradient>
<linearGradient id="paint2_linear_109_2" x1="247.074" y1="194.306" x2="247.074" y2="151.17" gradientUnits="userSpaceOnUse">
<stop stop-color="#F7CAC4"/>
<stop offset="0.423218" stop-color="#EEBCB9"/>
<stop offset="1" stop-color="#E1AAAA"/>
</linearGradient>
<linearGradient id="paint3_linear_109_2" x1="239.292" y1="189.351" x2="239.292" y2="168.205" gradientUnits="userSpaceOnUse">
<stop stop-color="#F6CAC4"/>
<stop offset="0.9944" stop-color="#E1AAAA"/>
</linearGradient>
<linearGradient id="paint4_linear_109_2" x1="53.3268" y1="205.632" x2="53.3268" y2="139.47" gradientUnits="userSpaceOnUse">
<stop stop-color="#FFB39D"/>
<stop offset="0.2251" stop-color="#FF9B8E"/>
<stop offset="0.4833" stop-color="#FF8781"/>
<stop offset="0.742" stop-color="#FF7B7A"/>
<stop offset="1" stop-color="#FF7777"/>
</linearGradient>
<linearGradient id="paint5_linear_109_2" x1="53.31" y1="194.306" x2="53.31" y2="151.17" gradientUnits="userSpaceOnUse">
<stop stop-color="#F6CAC4"/>
<stop offset="0.458333" stop-color="#EEBCB9"/>
<stop offset="0.9944" stop-color="#E1AAAA"/>
</linearGradient>
<linearGradient id="paint6_linear_109_2" x1="61.0924" y1="189.351" x2="61.0924" y2="168.205" gradientUnits="userSpaceOnUse">
<stop stop-color="#F6CAC4"/>
<stop offset="0.9944" stop-color="#E1AAAA"/>
</linearGradient>
<linearGradient id="paint7_linear_109_2" x1="150.341" y1="263.564" x2="150.341" y2="28.6152" gradientUnits="userSpaceOnUse">
<stop stop-color="#FFAA96"/>
<stop offset="0.4274" stop-color="#F9AB99"/>
<stop offset="0.5507" stop-color="#FBA38F"/>
<stop offset="0.7754" stop-color="#FE9983"/>
<stop offset="1" stop-color="#FF967F"/>
</linearGradient>
<linearGradient id="paint8_linear_109_2" x1="102.236" y1="184.729" x2="102.236" y2="113.233" gradientUnits="userSpaceOnUse">
<stop stop-color="#F0BD98"/>
<stop offset="0.9944" stop-color="#C95C45"/>
</linearGradient>
<linearGradient id="paint9_linear_109_2" x1="199.749" y1="184.73" x2="199.749" y2="113.236" gradientUnits="userSpaceOnUse">
<stop stop-color="#F0BD98"/>
<stop offset="1" stop-color="#C95C45"/>
</linearGradient>
<linearGradient id="paint10_linear_109_2" x1="78.5268" y1="168.145" x2="78.5268" y2="42.7814" gradientUnits="userSpaceOnUse">
<stop stop-color="#FFEADB"/>
<stop offset="0.9944" stop-color="#D177F4"/>
</linearGradient>
<linearGradient id="paint11_linear_109_2" x1="222.155" y1="168.145" x2="222.155" y2="42.7814" gradientUnits="userSpaceOnUse">
<stop stop-color="#FFEADB"/>
<stop offset="0.9944" stop-color="#D177F4"/>
</linearGradient>
<linearGradient id="paint12_linear_109_2" x1="191.389" y1="67.0392" x2="191.389" y2="62.9362" gradientUnits="userSpaceOnUse">
<stop offset="0.00558659" stop-color="#D177F4"/>
<stop offset="1" stop-color="#FFEADB"/>
</linearGradient>
<linearGradient id="paint13_linear_109_2" x1="103.487" y1="177.783" x2="103.487" y2="227.104" gradientUnits="userSpaceOnUse">
<stop stop-color="#EDB591" stop-opacity="0.964167"/>
<stop offset="1" stop-color="#E96144" stop-opacity="0.4"/>
</linearGradient>
<linearGradient id="paint14_linear_109_2" x1="79.1882" y1="46.6303" x2="86.4548" y2="46.6303" gradientUnits="userSpaceOnUse">
<stop offset="0.016" stop-color="#C59393"/>
<stop offset="0.9944" stop-color="#F6CAC4"/>
</linearGradient>
<linearGradient id="paint15_linear_109_2" x1="150.368" y1="202.755" x2="150.368" y2="181.316" gradientUnits="userSpaceOnUse">
<stop stop-color="#F97A7E"/>
<stop offset="0.0817" stop-color="#FA7D7E"/>
<stop offset="0.5411" stop-color="#FE897F"/>
<stop offset="1" stop-color="#FF8D7F"/>
</linearGradient>
<linearGradient id="paint16_linear_109_2" x1="157.788" y1="199.63" x2="165.055" y2="199.63" gradientUnits="userSpaceOnUse">
<stop offset="0.016" stop-color="#C59393"/>
<stop offset="0.9944" stop-color="#F6CAC4"/>
</linearGradient>
<linearGradient id="paint17_linear_109_2" x1="134.989" y1="199.531" x2="142.003" y2="199.531" gradientUnits="userSpaceOnUse">
<stop offset="0.016" stop-color="#7C51B3"/>
<stop offset="0.9944" stop-color="#BD89C4"/>
</linearGradient>
<linearGradient id="paint18_linear_109_2" x1="170.163" y1="122.607" x2="225.002" y2="122.607" gradientUnits="userSpaceOnUse">
<stop stop-color="#4F0E40"/>
<stop offset="1" stop-color="#842149"/>
</linearGradient>
<linearGradient id="paint19_linear_109_2" x1="170.038" y1="131.982" x2="170.038" y2="120.255" gradientUnits="userSpaceOnUse">
<stop stop-color="#4F0E40"/>
<stop offset="1" stop-color="#842149"/>
</linearGradient>
<linearGradient id="paint20_linear_109_2" x1="130.582" y1="122.607" x2="75.7434" y2="122.607" gradientUnits="userSpaceOnUse">
<stop stop-color="#4F0E40"/>
<stop offset="1" stop-color="#842149"/>
</linearGradient>
<linearGradient id="paint21_linear_109_2" x1="130.708" y1="131.982" x2="130.708" y2="120.255" gradientUnits="userSpaceOnUse">
<stop stop-color="#4F0E40"/>
<stop offset="1" stop-color="#842149"/>
</linearGradient>
<linearGradient id="paint22_linear_109_2" x1="104.891" y1="176.924" x2="104.891" y2="140.983" gradientUnits="userSpaceOnUse">
<stop stop-color="#EEE2FF"/>
<stop offset="0.996" stop-color="#BDC9FB"/>
</linearGradient>
<linearGradient id="paint23_linear_109_2" x1="105.592" y1="174.577" x2="105.592" y2="148.521" gradientUnits="userSpaceOnUse">
<stop stop-color="#ACA1DB"/>
<stop offset="1" stop-color="#6A518A"/>
</linearGradient>
<linearGradient id="paint24_linear_109_2" x1="105.592" y1="173.815" x2="105.592" y2="149.283" gradientUnits="userSpaceOnUse">
<stop stop-color="#7C695B"/>
<stop offset="0.9637" stop-color="#562F23"/>
</linearGradient>
<linearGradient id="paint25_linear_109_2" x1="197.222" y1="175.037" x2="197.222" y2="139.105" gradientUnits="userSpaceOnUse">
<stop stop-color="#EEE2FF"/>
<stop offset="0.996" stop-color="#BDC9FB"/>
</linearGradient>
<linearGradient id="paint26_linear_109_2" x1="196.521" y1="172.691" x2="196.521" y2="146.641" gradientUnits="userSpaceOnUse">
<stop stop-color="#ACA1DB"/>
<stop offset="1" stop-color="#6A518A"/>
</linearGradient>
<linearGradient id="paint27_linear_109_2" x1="196.521" y1="171.929" x2="196.521" y2="147.403" gradientUnits="userSpaceOnUse">
<stop stop-color="#7C695B"/>
<stop offset="0.9637" stop-color="#562F23"/>
</linearGradient>
<linearGradient id="paint28_linear_109_2" x1="193.268" y1="182.021" x2="193.268" y2="231.341" gradientUnits="userSpaceOnUse">
<stop stop-color="#EDB591" stop-opacity="0.964167"/>
<stop offset="1" stop-color="#E96144" stop-opacity="0.4"/>
</linearGradient>
<linearGradient id="paint29_linear_109_2" x1="91.9299" y1="316.348" x2="91.9299" y2="19.1569" gradientUnits="userSpaceOnUse">
<stop stop-color="#AB4D4B"/>
<stop offset="1" stop-color="#9A3651"/>
</linearGradient>
<linearGradient id="paint30_linear_109_2" x1="212.829" y1="315.268" x2="212.829" y2="18.8735" gradientUnits="userSpaceOnUse">
<stop stop-color="#AB4D4B"/>
<stop offset="1" stop-color="#9A3651"/>
</linearGradient>
<linearGradient id="paint31_linear_109_2" x1="109.324" y1="281.142" x2="109.324" y2="43.5047" gradientUnits="userSpaceOnUse">
<stop stop-color="#C09391"/>
<stop offset="0.9944" stop-color="#8E6A68"/>
<stop offset="0.9945" stop-color="#8E6A68"/>
</linearGradient>
<linearGradient id="paint32_linear_109_2" x1="51.5786" y1="311.166" x2="51.5786" y2="125.881" gradientUnits="userSpaceOnUse">
<stop stop-color="#C09391"/>
<stop offset="0.9944" stop-color="#8E6A68"/>
</linearGradient>
<linearGradient id="paint33_linear_109_2" x1="63.8266" y1="316.348" x2="63.8266" y2="164.619" gradientUnits="userSpaceOnUse">
<stop offset="0.00558659" stop-color="#8E6A68"/>
<stop offset="1" stop-color="#C09391"/>
</linearGradient>
<linearGradient id="paint34_linear_109_2" x1="187.603" y1="198.57" x2="187.603" y2="49.3094" gradientUnits="userSpaceOnUse">
<stop stop-color="#C09391"/>
<stop offset="0.9944" stop-color="#8E6A68"/>
</linearGradient>
<linearGradient id="paint35_linear_109_2" x1="232.928" y1="315.268" x2="232.928" y2="58.2564" gradientUnits="userSpaceOnUse">
<stop offset="0.00558659" stop-color="#8E6A68"/>
<stop offset="1" stop-color="#C09391"/>
</linearGradient>
<clipPath id="clip0_109_2">
<rect width="300" height="320.619" fill="white" transform="translate(0.272156 0.81958)"/>
</clipPath>
<clipPath id="clip1_109_2">
<rect width="77.4" height="28.1208" fill="white" transform="translate(113.525 210.352)"/>
</clipPath>
<clipPath id="clip2_109_2">
<rect width="32.4" height="25.997" fill="white" transform="translate(134.072 181.316)"/>
</clipPath>
<clipPath id="clip3_109_2">
<rect width="149.262" height="18.7566" fill="white" transform="translate(75.7434 113.232)"/>
</clipPath>
</defs>
</svg>
