<?xml version="1.0" encoding="UTF-8"?>
<svg xmlns="http://www.w3.org/2000/svg" xmlns:xlink="http://www.w3.org/1999/xlink" viewBox="0 0 100 100" width="100px" height="100px">
<g id="surface219411027">
<path style=" stroke:none;fill-rule:nonzero;fill:rgb(100%,100%,100%);fill-opacity:1;" d="M 99.457031 22 L 97.757812 22 C 95.65625 22 93.675781 22.980469 92.398438 24.648438 L 74.996094 47.402344 L 57.597656 24.648438 C 56.324219 22.980469 54.34375 22 52.242188 22 L 50.542969 22 L 72.484375 50.691406 L 50.070312 80 L 51.773438 80 C 53.875 80 55.855469 79.019531 57.128906 77.351562 L 75 53.984375 L 92.871094 77.351562 C 94.144531 79.019531 96.125 80 98.226562 80 L 99.929688 80 L 77.515625 50.691406 Z M 42.578125 68.484375 C 37.46875 76.246094 27.414062 80.222656 17.800781 76.714844 C 9.34375 73.628906 4 65.222656 4 56.21875 L 4 54 L 50 54 L 50 45.730469 C 50 32.722656 40.363281 21.332031 27.410156 20.113281 C 12.546875 18.714844 0 30.421875 0 45 L 0 56.144531 C 0 66.886719 6.429688 76.875 16.539062 80.511719 C 29.742188 85.265625 43.632812 78.171875 48.328125 66 L 47.054688 66 C 45.230469 66 43.578125 66.960938 42.578125 68.484375 Z M 4 45 C 4 33.421875 13.421875 24 25 24 C 36.578125 24 46 33.421875 46 45 L 46 50 L 4 50 Z M 4 45 "/>
</g>
</svg>
