<?xml version="1.0" encoding="UTF-8"?>
<svg xmlns="http://www.w3.org/2000/svg" xmlns:xlink="http://www.w3.org/1999/xlink" viewBox="0 0 96 96" width="96px" height="96px">
<g id="surface250190248">
<path style=" stroke:none;fill-rule:nonzero;fill:rgb(100%,100%,100%);fill-opacity:1;" d="M 46 8 C 32.765625 8 22 22.539062 22 40.410156 C 22 50.078125 25.164062 58.746094 30.15625 64.683594 C 30.058594 65.109375 30 65.546875 30 66 C 30 69.3125 32.6875 72 36 72 C 39.3125 72 42 69.3125 42 66 C 42 62.6875 39.3125 60 36 60 C 35.371094 60 34.777344 60.125 34.207031 60.304688 C 30.410156 55.460938 28 48.351562 28 40.410156 C 28 25.847656 36.074219 14 46 14 C 53.675781 14 60.222656 21.09375 62.808594 31.035156 C 65.050781 31.726562 67.28125 32.601562 69.46875 33.652344 C 67.15625 19.015625 57.519531 8 46 8 Z M 46 8 "/>
<path style=" stroke:none;fill-rule:nonzero;fill:rgb(100%,100%,100%);fill-opacity:1;" d="M 71.015625 40.167969 C 63.121094 35.382812 54.265625 33.285156 46.648438 34.25 C 45.550781 32.886719 43.886719 32 42 32 C 38.6875 32 36 34.6875 36 38 C 36 41.3125 38.6875 44 42 44 C 44.542969 44 46.707031 42.410156 47.578125 40.175781 C 53.8125 39.417969 61.203125 41.238281 67.902344 45.300781 C 80.710938 53.0625 87.242188 66.441406 82.46875 75.125 C 80.8125 78.132812 77.894531 80.269531 74.03125 81.304688 C 69.460938 82.527344 64.019531 82.09375 58.578125 80.246094 C 56.898438 81.792969 55.078125 83.242188 53.128906 84.585938 C 58.230469 86.816406 63.519531 87.992188 68.464844 87.992188 C 70.945312 87.992188 73.34375 87.699219 75.585938 87.097656 C 81.066406 85.632812 85.265625 82.488281 87.726562 78.015625 C 94.03125 66.550781 86.535156 49.574219 71.015625 40.167969 Z M 71.015625 40.167969 "/>
<path style=" stroke:none;fill-rule:nonzero;fill:rgb(100%,100%,100%);fill-opacity:1;" d="M 70 57.984375 C 70 54.679688 67.3125 52 64 52 C 60.6875 52 58 54.679688 58 57.984375 C 58 59.320312 58.457031 60.546875 59.199219 61.542969 C 56.640625 67.144531 51.710938 72.675781 45.074219 76.699219 C 37.347656 81.386719 28.707031 83.101562 21.964844 81.300781 C 18.101562 80.265625 15.183594 78.128906 13.53125 75.121094 C 10.125 68.933594 12.488281 60.371094 18.75 53.144531 C 18.105469 50.859375 17.625 48.464844 17.339844 45.996094 C 7.199219 55.589844 3.121094 68.640625 8.273438 78.015625 C 10.734375 82.488281 14.933594 85.632812 20.414062 87.097656 C 22.65625 87.699219 25.050781 87.992188 27.535156 87.992188 C 34.226562 87.992188 41.546875 85.855469 48.1875 81.832031 C 55.859375 77.183594 61.550781 70.679688 64.605469 63.90625 C 67.628906 63.601562 70 61.082031 70 57.984375 Z M 70 57.984375 "/>
</g>
</svg>
